<svg width="24" height="24" viewBox="0 0 23 23" fill="none" xmlns="http://www.w3.org/2000/svg">
<path d="M22.2812 11.5C22.2812 12.42 21.151 13.1783 20.9246 14.0264C20.691 14.9033 21.2822 16.1252 20.8384 16.8924C20.3873 17.6723 19.0307 17.7657 18.3982 18.3982C17.7657 19.0307 17.6723 20.3873 16.8924 20.8384C16.1252 21.2822 14.9033 20.691 14.0264 20.9246C13.1783 21.151 12.42 22.2812 11.5 22.2812C10.58 22.2812 9.82172 21.151 8.97359 20.9246C8.09672 20.691 6.87484 21.2822 6.10758 20.8384C5.32773 20.3873 5.2343 19.0307 4.6018 18.3982C3.9693 17.7657 2.61266 17.6723 2.16164 16.8924C1.71781 16.1252 2.30898 14.9033 2.07539 14.0264C1.84898 13.1783 0.71875 12.42 0.71875 11.5C0.71875 10.58 1.84898 9.82172 2.07539 8.97359C2.30898 8.09672 1.71781 6.87484 2.16164 6.10758C2.61266 5.32773 3.9693 5.2343 4.6018 4.6018C5.2343 3.9693 5.32773 2.61266 6.10758 2.16164C6.87484 1.71781 8.09672 2.30898 8.97359 2.07539C9.82172 1.84898 10.58 0.71875 11.5 0.71875C12.42 0.71875 13.1783 1.84898 14.0264 2.07539C14.9033 2.30898 16.1252 1.71781 16.8924 2.16164C17.6723 2.61266 17.7657 3.9693 18.3982 4.6018C19.0307 5.2343 20.3873 5.32773 20.8384 6.10758C21.2822 6.87484 20.691 8.09672 20.9246 8.97359C21.151 9.82172 22.2812 10.58 22.2812 11.5Z" fill="#2F8FA8"/>
<path d="M14.6158 8.28718L10.5117 12.3912L8.38421 10.2655C8.16233 10.0438 7.86147 9.91921 7.54777 9.91921C7.23407 9.91921 6.9332 10.0438 6.71132 10.2655C6.48956 10.4874 6.36499 10.7883 6.36499 11.102C6.36499 11.4157 6.48956 11.7166 6.71132 11.9384L9.69593 14.923C9.9119 15.1388 10.2047 15.2599 10.5099 15.2599C10.8152 15.2599 11.1079 15.1388 11.3239 14.923L16.2869 9.96007C16.5086 9.73819 16.6332 9.43733 16.6332 9.12363C16.6332 8.80993 16.5086 8.50906 16.2869 8.28718C16.1772 8.17739 16.0469 8.09029 15.9036 8.03087C15.7602 7.97144 15.6065 7.94086 15.4513 7.94086C15.2961 7.94086 15.1425 7.97144 14.9991 8.03087C14.8557 8.09029 14.7255 8.17739 14.6158 8.28718Z" fill="#FFFCEE"/>
</svg>
