<svg xmlns="http://www.w3.org/2000/svg" width="124" height="124" viewBox="0 0 1000 1000" ><defs><clipPath id="a"><path d="M0 0h1000v1000H0z"/></clipPath><clipPath id="b"><path d="M0 0h1000v1000H0z"/></clipPath><clipPath id="c"><path d="M0 0h1000v1000H0z"/></clipPath><clipPath id="d"><path d="M0 0h1000v1000H0z"/></clipPath><clipPath id="e"><path d="M0 0h1000v1000H0z"/></clipPath></defs><g clip-path="url(#a)"><path fill="#DF7D60" d="m-118-396-24 42.071L-166-396v118h48v-118z" transform="matrix(-1 0 0 -.56 230 631.04)" /><path fill="#FFDEC9" d="M254.372-269.304v538.608c0 26.491-21.51 48-48 48h-412.744c-26.49 0-48-21.509-48-48v-538.608c0-26.491 21.51-48 48-48h412.744c26.49 0 48 21.509 48 48z" transform="translate(500 488)" /><path fill="#DE7C5F" d="M44.218-8.601V8.6c0 11.038-8.962 20-20 20h-48.436c-11.038 0-20-8.962-20-20V-8.6c0-11.038 8.962-20 20-20h48.436c11.038 0 20 8.962 20 20z" transform="matrix(.72 0 0 .72 257.749 339.535)" /><path fill="#DE7C5F" d="M44.218-8.601V8.6c0 11.038-8.962 20-20 20h-48.436c-11.038 0-20-8.962-20-20V-8.6c0-11.038 8.962-20 20-20h48.436c11.038 0 20 8.962 20 20z" transform="matrix(.72 0 0 .72 257.63 437.935)" /><path fill="#DE7C5F" d="M44.218-8.601V8.6c0 11.038-8.962 20-20 20h-48.436c-11.038 0-20-8.962-20-20V-8.6c0-11.038 8.962-20 20-20h48.436c11.038 0 20 8.962 20 20z" transform="matrix(.72 0 0 .72 257.63 537.935)" /><path fill="#DE7C5F" d="M44.218-8.601V8.6c0 11.038-8.962 20-20 20h-48.436c-11.038 0-20-8.962-20-20V-8.6c0-11.038 8.962-20 20-20h48.436c11.038 0 20 8.962 20 20z" transform="matrix(.72 0 0 .72 257.63 637.935)" /><g clip-path="url(#b)" transform="matrix(.6 0 0 .6 210 183.533)" ><path fill="#C97B4D" d="M84.5 14.5-2.625 54-2 192l107.5-37-21-140.5z" transform="matrix(.72 0 0 1.49 499.44 410.388)" /><path fill="#E59362" d="M84.5 14.5-2.625 54-2 192l107.5-37-21-140.5z" transform="matrix(-.72 0 0 1.49 496.56 410.388)" /><g ><path fill="#E39262" d="M498.45 548.426s13.766.919 27.871-5.564C545.601 534 590.06 503 607.125 472.41c19.462-34.887 19.987-98.548 25.028-138.763C644.143 238 588.32 190.59 497.731 190.59"/><path fill="#E39262" d="M639.908 340.952c9.005 2.032 13.493 18.577 10.016 36.925-3.478 18.347-13.613 31.594-22.619 29.563-9.005-2.031-13.493-18.577-10.015-36.925 3.478-18.347 13.613-31.594 22.618-29.563z"/></g><g ><path fill="#EB9E71" d="M499.495 548.426s-13.767.919-27.872-5.564C452.343 534 407.884 503 390.819 472.41c-19.463-34.887-19.987-98.548-25.028-138.763C353.8 238 409.625 190.59 500.213 190.59"/><path fill="#EB9E71" d="M358.036 340.952c-9.005 2.032-13.493 18.577-10.016 36.925 3.478 18.347 13.613 31.594 22.619 29.563 9.005-2.031 13.493-18.577 10.015-36.925-3.478-18.347-13.613-31.594-22.618-29.563z"/></g><path fill="#A65FD0" d="M71.125 112.25S68.75 163.5 17.75 177.5c0 15.012-19.73 60.25-19.73 60.25L-1.938 354 216 276s6.919-76.26-14-110c-31-50-130.875-53.75-130.875-53.75z" transform="translate(500 460)" /><path fill="#CF87ED" d="M71.125 112.25S57.5 172.5 16.5 177.5c0 17.61-18.554 60.125-18.554 60.125L-2.062 354 216 276s6.919-76.26-14-110c-31-50-130.875-53.75-130.875-53.75z" transform="matrix(-1 0 0 1 496 460)" /><path stroke-linecap="round" stroke-linejoin="round" stroke="#FFF" stroke-width="7" d="M-78.5 74.5s-1.5 54 54.5 62c3.5 3.5 3.062 36.125 22.062 61.125.5.5 18.438-29.125 20.938-60.125-.5-.5 46.5-11.5 52.5-65" fill="none" transform="translate(500 500)" /><g ><path fill="#333" d="M531 187c-88 18 16 69 16 69s-11 61 29 109 30.137 107.45 29 124.5c-3 45-31 107-31 107S670 505 675 353c2.834-86.163-56-184-144-166z"/><path fill="#333" d="M561 197c-25-69-231-41-245 131-11.238 138.064 64.981 239.839 64.981 239.839s-4.231-16.589-6.754-30c-5.835-31.023-6.325-39.138-3.413-31.609C406.5 598.5 453 633 453 633s-121-279 3-310 98-84 98-84 31.621 25.954 7-42z"/></g></g></g></svg>