<svg width="16" height="16" viewBox="0 0 16 16" fill="none" xmlns="http://www.w3.org/2000/svg">
<path d="M13.8182 0H2.18182C0.976833 0 0 0.976833 0 2.18182V13.8182C0 15.0232 0.976833 16 2.18182 16H13.8182C15.0232 16 16 15.0232 16 13.8182V2.18182C16 0.976833 15.0232 0 13.8182 0Z" fill="#0077B5"/>
<path d="M5.76365 4.36364C5.76365 4.63334 5.68367 4.89698 5.53384 5.12123C5.384 5.34548 5.17103 5.52026 4.92186 5.62347C4.67268 5.72668 4.3985 5.75369 4.13398 5.70107C3.86946 5.64845 3.62649 5.51858 3.43578 5.32787C3.24507 5.13717 3.1152 4.89419 3.06258 4.62967C3.00996 4.36515 3.03697 4.09097 3.14018 3.8418C3.24339 3.59262 3.41817 3.37965 3.64242 3.22981C3.86667 3.07998 4.13031 3 4.40001 3C4.76167 3 5.10852 3.14367 5.36425 3.3994C5.61998 3.65513 5.76365 4.00198 5.76365 4.36364ZM5.45456 6.63636V12.6609C5.4548 12.7054 5.44625 12.7494 5.42941 12.7905C5.41257 12.8317 5.38776 12.8691 5.35642 12.9006C5.32508 12.9321 5.28782 12.9571 5.24678 12.9742C5.20574 12.9912 5.16173 13 5.11729 13H3.68001C3.63557 13.0001 3.59154 12.9915 3.55046 12.9745C3.50937 12.9575 3.47204 12.9326 3.44062 12.9012C3.40919 12.8698 3.38428 12.8325 3.36733 12.7914C3.35038 12.7503 3.34171 12.7063 3.34183 12.6618V6.63636C3.34183 6.54667 3.37746 6.46065 3.44088 6.39723C3.5043 6.33381 3.59032 6.29818 3.68001 6.29818H5.11729C5.20682 6.29842 5.29261 6.33416 5.35583 6.39755C5.41905 6.46095 5.45456 6.54683 5.45456 6.63636ZM12.9673 9.77273V12.6891C12.9674 12.73 12.9594 12.7704 12.9439 12.8082C12.9283 12.846 12.9054 12.8803 12.8765 12.9092C12.8476 12.9381 12.8133 12.961 12.7755 12.9766C12.7377 12.9922 12.6972 13.0001 12.6564 13H11.1109C11.0701 13.0001 11.0296 12.9922 10.9918 12.9766C10.954 12.961 10.9197 12.9381 10.8908 12.9092C10.8619 12.8803 10.839 12.846 10.8234 12.8082C10.8079 12.7704 10.7999 12.73 10.8 12.6891V9.86273C10.8 9.44091 10.9237 8.01545 9.69729 8.01545C8.74729 8.01545 8.55365 8.99091 8.51547 9.42909V12.6891C8.51548 12.7708 8.48335 12.8492 8.42602 12.9073C8.36869 12.9655 8.29077 12.9988 8.20911 13H6.71638C6.67559 13 6.63521 12.992 6.59754 12.9763C6.55987 12.9607 6.52565 12.9378 6.49685 12.9089C6.46805 12.88 6.44524 12.8457 6.42971 12.808C6.41419 12.7703 6.40626 12.7299 6.40638 12.6891V6.61C6.40626 6.56921 6.41419 6.52881 6.42971 6.49109C6.44524 6.45337 6.46805 6.41909 6.49685 6.39021C6.52565 6.36133 6.55987 6.33841 6.59754 6.32277C6.63521 6.30714 6.67559 6.29909 6.71638 6.29909H8.20911C8.29156 6.29909 8.37064 6.33185 8.42895 6.39015C8.48726 6.44846 8.52001 6.52754 8.52001 6.61V7.13545C8.87274 6.60636 9.39547 6.19818 10.5109 6.19818C12.9818 6.19818 12.9673 8.50545 12.9673 9.77273Z" fill="white"/>
</svg>
