<?xml version="1.0" encoding="iso-8859-1"?>
<!-- Uploaded to: SVG Repo, www.svgrepo.com, Generator: SVG Repo Mixer Tools -->
<svg height="800px" width="800px" version="1.1" id="Layer_1" xmlns="http://www.w3.org/2000/svg" xmlns:xlink="http://www.w3.org/1999/xlink" 
	 viewBox="0 0 511.989 511.989" xml:space="preserve">
<path style="fill:#AAB2BC;" d="M467.521,415.401l-40.874-61.311v-43.5l27.249,13.625c1.531,0.75,3.156,1.125,4.75,1.125
	c3.906,0,7.688-2.156,9.562-5.906c2.625-5.281,0.484-11.688-4.781-14.312l-36.78-18.374v-50.819l36.78-18.39
	c5.266-2.641,7.406-9.047,4.781-14.312c-2.656-5.266-9.062-7.406-14.312-4.766l-27.249,13.609v-42.312l39.562-39.546
	c4.156-4.172,4.156-10.922,0-15.094c-4.172-4.156-10.938-4.156-15.094,0l-39.53,39.546h-40.749l15.906-26.515
	c3.031-5.047,1.391-11.594-3.656-14.625c-5.062-3.031-11.609-1.391-14.641,3.656l-22.484,37.483h-44.967l6-29.905
	c1.156-5.781-2.594-11.391-8.375-12.547s-11.406,2.594-12.562,8.359l-6.812,34.093h-46.506l-6.812-34.093
	c-1.156-5.766-6.781-9.516-12.554-8.359c-5.773,1.156-9.523,6.766-8.367,12.547l5.984,29.905h-44.952l-22.492-37.483
	c-3.031-5.047-9.586-6.688-14.633-3.656c-5.054,3.031-6.687,9.578-3.664,14.625l15.914,26.515h-40.749l-39.538-39.546
	c-4.164-4.156-10.922-4.156-15.086,0c-4.164,4.172-4.164,10.922,0,15.094l39.546,39.546v42.312L58.102,198.46
	c-5.266-2.641-11.672-0.5-14.312,4.766c-2.632,5.266-0.492,11.672,4.773,14.312l36.773,18.39v50.819l-36.773,18.374
	c-5.266,2.625-7.406,9.031-4.773,14.312c1.875,3.75,5.641,5.906,9.555,5.906c1.602,0,3.227-0.375,4.758-1.125l27.234-13.625v43.5
	L44.462,415.4c-3.273,4.906-1.945,11.531,2.953,14.812c1.82,1.188,3.875,1.781,5.906,1.781c3.453,0,6.836-1.656,8.891-4.75
	l39.499-59.249h308.563l39.499,59.249c2.062,3.094,5.438,4.75,8.906,4.75c2.031,0,4.078-0.594,5.906-1.781
	C469.474,426.932,470.803,420.307,467.521,415.401z M170.661,176.008h42.671v42.655h-42.671V176.008z M341.337,218.663H298.65
	v-42.655h42.687V218.663z M405.336,282.654h-42.688v-42.647h42.688V282.654z M341.337,282.654H298.65v-42.647h42.687V282.654z
	 M277.338,282.654H234.66v-42.647h42.678V282.654z M277.338,218.663H234.66v-42.655h42.678V218.663z M213.332,240.007v42.647
	h-42.671v-42.647H213.332z M149.333,282.654h-42.671v-42.647h42.671V282.654z M106.662,303.997h42.671v42.656h-42.671
	C106.662,346.653,106.662,303.997,106.662,303.997z M170.661,303.997h42.671v42.656h-42.671V303.997z M234.66,303.997h42.678v42.656
	H234.66L234.66,303.997L234.66,303.997z M298.65,303.997h42.687v42.656H298.65V303.997z M362.648,303.997h42.688v42.656h-42.688
	V303.997z M405.336,218.663h-42.688v-42.655h42.688V218.663z M149.333,176.008v42.655h-42.671v-42.655H149.333z"/>
<path style="fill:#434A54;" d="M394.648,378.652c0,35.343-28.641,63.999-63.999,63.999c-35.343,0-63.991-28.656-63.991-63.999
	s28.648-63.999,63.991-63.999C366.008,314.652,394.648,343.309,394.648,378.652z"/>
<g>
	<path style="fill:#E6E9ED;" d="M394.648,378.652c0-3.188-0.219-6.344-0.688-9.406h-32.359l-10.516,32.343l27.234,19.781
		C388.476,410.026,394.648,395.089,394.648,378.652z"/>
	<path style="fill:#E6E9ED;" d="M342.368,315.747l-9.594,29.469l27.515,19.999l25.734-18.687
		C376.805,330.684,360.992,319.184,342.368,315.747z"/>
	<path style="fill:#E6E9ED;" d="M275.307,346.527l25.719,18.687l27.499-19.999l-9.562-29.469
		C300.322,319.184,284.525,330.684,275.307,346.527z"/>
	<path style="fill:#E6E9ED;" d="M310.228,401.589l-10.516-32.343h-32.359c-0.453,3.062-0.695,6.219-0.695,9.406
		c0,16.437,6.18,31.374,16.336,42.718L310.228,401.589z"/>
	<path style="fill:#E6E9ED;" d="M313.65,404.089l-10.5,32.312l0.188,0.156c8.281,3.906,17.547,6.094,27.312,6.094
		c9.781,0,19.046-2.188,27.343-6.094l0.172-0.156l-10.516-32.312H313.65z"/>
</g>
<path style="fill:#CCD1D9;" d="M501.333,69.339H10.664C4.773,69.339,0,74.105,0,80.011v341.328c0,5.875,4.773,10.656,10.664,10.656
	h42.671c5.891,0,10.664-4.781,10.664-10.656V133.337H447.99v288.001c0,5.875,4.781,10.656,10.656,10.656h42.687
	c5.875,0,10.656-4.781,10.656-10.656V80.011C511.989,74.104,507.208,69.339,501.333,69.339z"/>
</svg>