<svg width="288" height="250" viewBox="0 0 288 250" fill="none" xmlns="http://www.w3.org/2000/svg">
<path d="M282.14 100.766C281.78 97.3063 278.99 94.4663 275.53 94.0163C274.01 93.8163 272.57 94.0863 271.31 94.6763C271.32 94.4363 271.35 94.1963 271.35 93.9563C271.35 85.5263 264.51 78.6863 256.08 78.6863C252.85 78.6863 249.85 79.6962 247.38 81.4162C244.85 71.0462 235.14 63.4963 223.81 64.3463C213.02 65.1563 204.23 73.7663 203.18 84.5363C202.85 87.8863 203.28 91.0963 204.28 94.0363C203.96 93.9963 203.65 93.9663 203.32 93.9663C201.83 93.9663 200.45 94.3962 199.27 95.1362C199.27 94.9963 199.29 94.8663 199.29 94.7263C199.29 86.7063 192.79 80.2063 184.77 80.2063C176.75 80.2063 170.25 86.7063 170.25 94.7263C170.25 95.5063 170.33 96.2762 170.45 97.0262H146.07C142.7 97.0262 139.96 99.7663 139.96 103.136C139.96 106.506 142.7 109.246 146.07 109.246H277.17V108.766C280.33 107.606 282.51 104.426 282.12 100.786L282.14 100.766Z" fill="#092228"/>
<path d="M0 209.856C0 209.856 36.17 141.236 79.26 141.956C141.23 142.996 179.96 202.316 179.96 202.316L0 209.856Z" fill="#15363F"/>
<path d="M90.47 209.856C90.47 209.856 141.59 122.536 184.69 123.256C246.66 124.296 278.9 208.396 278.9 208.396L90.47 209.856Z" fill="#15363F"/>
<path d="M287.18 221.366C287.18 236.546 219.29 236.456 142.65 246.796C22.91 262.956 0 209.856 0 209.856C5.76 195.466 78.89 176.536 150.14 176.536C221.39 176.536 287.18 206.186 287.18 221.366Z" fill="#092228"/>
<path d="M152.72 51.5161H129.12C129.76 49.0561 129.72 46.3161 128.23 43.3961C126.62 40.2261 123.71 37.8261 120.23 37.0961C118.06 36.6361 115.99 36.8161 114.12 37.4361C114.12 37.3061 114.12 37.1861 114.12 37.0561C114.12 25.5761 104.81 16.2661 93.3299 16.2661C83.1699 16.2661 74.7199 23.5561 72.9099 33.1761C72.0699 33.0161 71.2099 32.9261 70.3299 32.9261C63.0499 32.9261 57.1199 38.6161 56.7099 45.7861H24.6399C20.6799 45.7861 17.2299 48.8361 17.1099 52.7961C16.9899 56.8961 20.2699 60.2461 24.3399 60.2461H152.71C155.12 60.2461 157.08 58.2861 157.08 55.8761C157.08 53.4661 155.12 51.5061 152.71 51.5061L152.72 51.5161Z" fill="#092228"/>
<path d="M240.38 25.5862H226.34C226.72 24.1262 226.7 22.4962 225.81 20.7562C224.85 18.8762 223.12 17.4462 221.05 17.0062C219.76 16.7362 218.53 16.8362 217.42 17.2062C217.42 17.1262 217.42 17.0562 217.42 16.9762C217.42 10.1462 211.88 4.6062 205.05 4.6062C199.01 4.6062 193.98 8.9462 192.9 14.6662C192.4 14.5662 191.89 14.5162 191.36 14.5162C187.03 14.5162 183.5 17.9062 183.25 22.1662H164.17C161.81 22.1662 159.76 23.9862 159.69 26.3362C159.62 28.7762 161.57 30.7762 163.99 30.7762H240.37C241.81 30.7762 242.97 29.6162 242.97 28.1762C242.97 26.7362 241.81 25.5762 240.37 25.5762L240.38 25.5862Z" fill="#092228"/>
<path d="M27.3601 194.236C39.2901 208.376 74.5501 235.456 164.69 223.286C210.08 217.156 252.4 214.696 279.36 210.546C259.9 195.236 206.74 176.526 150.14 176.526C103.57 176.526 56.2001 184.616 27.3601 194.236Z" fill="#0E2B33"/>
<path d="M209.85 71.4861C210.21 69.7461 208.7 67.8161 207.95 66.2161C207.36 64.9661 206.76 63.7161 206.18 62.4561C206.09 62.2661 205.95 61.7161 205.87 61.8661C206 61.4461 206.44 60.9261 206.63 60.5761C207.65 58.7261 209.03 57.0661 209.03 54.9361V50.2861C209.03 49.3961 209.28 48.0561 209.03 47.1861C208.74 46.1961 207.73 45.2461 207.12 44.4261C206.58 43.7061 206.04 42.9861 205.5 42.2661C205.19 41.8461 204.82 40.9961 204.71 41.3861C204.91 40.3861 206.35 38.7661 206.82 37.9761C207.54 36.7761 208.26 35.5761 208.98 34.3661C209.28 33.8661 208.59 33.5961 208.24 33.5961H154.58C154.64 33.5161 154.67 33.4261 154.67 33.3261V1.43614C155.1 0.926139 154.63 -0.143859 153.75 0.016141C146.26 1.35614 139.48 4.99613 132.1 6.69613C131.75 6.77613 131.57 6.99615 131.5 7.25615C131.41 7.33615 131.35 7.43615 131.35 7.53615V33.6061H82.1601C81.8101 33.6061 81.2501 33.9061 81.2501 34.3061C81.2301 37.9161 81.2001 41.5261 81.1801 45.1361C81.1801 46.2761 81.1001 46.4561 81.8301 47.2361C82.8501 48.3261 84.2601 49.2061 85.5301 50.1061C85.5201 50.1161 85.5101 50.1261 85.5001 50.1461C84.2001 50.8361 82.9001 51.5261 81.6001 52.2061C81.3901 52.3161 81.1301 52.5261 81.1301 52.7961C81.1101 56.6961 81.0801 60.5861 81.0601 64.4861L81.0101 72.4561C81.0101 73.7161 80.7001 75.4361 80.9801 76.6761C81.3101 78.1161 82.8101 79.6261 83.6301 80.8361C83.7201 80.9661 83.8601 81.1361 84.0001 81.3061C83.7701 81.5561 83.6801 81.8561 83.9301 82.0061C83.9101 82.0261 83.8901 82.0461 83.8701 82.0761C83.0601 82.8761 82.3301 83.9661 81.6601 84.8861C80.7201 86.1761 80.9101 87.1661 80.9001 88.7861C80.8901 91.0261 80.8701 93.2561 80.8601 95.4961C80.8601 95.9461 81.2601 96.0861 81.6501 96.0961C95.9201 96.5461 110.19 97.0061 124.46 97.4561L132.68 97.7161V204.336C132.1 204.726 132.26 205.896 133.17 205.936L153.53 206.936C154.13 206.966 154.4 206.486 154.36 206.026C154.39 205.936 154.42 205.836 154.42 205.716V98.4061C167.08 98.8061 179.75 99.2161 192.41 99.6161C197.54 99.7762 202.68 99.9461 207.81 100.106C207.96 100.136 208.12 100.136 208.28 100.096C208.51 100.066 208.69 99.9761 208.81 99.8361C208.98 99.6861 209.08 99.4761 209.03 99.2461C207.94 94.1361 206.85 89.0261 205.76 83.9161C205.67 83.4861 205.56 82.4661 205.49 82.6761C205.67 81.6261 206.37 80.4562 206.75 79.4762C207.74 76.9261 209.32 74.1562 209.87 71.4762L209.85 71.4861Z" fill="#FFFFEB"/>
<path d="M209.85 71.4861C210.21 69.7461 208.7 67.8161 207.95 66.2161C207.36 64.9661 206.76 63.7161 206.18 62.4561C206.09 62.2661 205.95 61.7161 205.87 61.8661C206 61.4461 206.44 60.9261 206.63 60.5761C207.65 58.7261 209.03 57.0661 209.03 54.9361V50.2861C209.03 49.3961 209.28 48.0561 209.03 47.1861C208.74 46.1961 207.73 45.2461 207.12 44.4261C206.58 43.7061 206.04 42.9861 205.5 42.2661C205.19 41.8461 204.82 40.9961 204.71 41.3861C204.91 40.3861 206.35 38.7661 206.82 37.9761C207.54 36.7761 208.26 35.5761 208.98 34.3661C209.28 33.8661 208.59 33.5961 208.24 33.5961H154.58C154.64 33.5161 154.67 33.4261 154.67 33.3261V1.43614C155.1 0.926139 154.63 -0.143859 153.75 0.016141C146.26 1.35614 139.48 4.99613 132.1 6.69613C131.75 6.77613 131.57 6.99615 131.5 7.25615C131.41 7.33615 131.35 7.43615 131.35 7.53615V33.6061H82.1601C81.8101 33.6061 81.2501 33.9061 81.2501 34.3061C81.2301 37.9161 81.2001 41.5261 81.1801 45.1361C81.1801 46.2761 81.1001 46.4561 81.8301 47.2361C82.8501 48.3261 84.2601 49.2061 85.5301 50.1061C85.5201 50.1161 85.5101 50.1261 85.5001 50.1461C84.2001 50.8361 82.9001 51.5261 81.6001 52.2061C81.3901 52.3161 81.1301 52.5261 81.1301 52.7961C81.1101 56.6961 81.0801 60.5861 81.0601 64.4861L81.0101 72.4561C81.0101 73.7161 80.7001 75.4361 80.9801 76.6761C81.3101 78.1161 82.8101 79.6261 83.6301 80.8361C83.7201 80.9661 83.8601 81.1361 84.0001 81.3061C83.7701 81.5561 83.6801 81.8561 83.9301 82.0061C83.9101 82.0261 83.8901 82.0461 83.8701 82.0761C83.0601 82.8761 82.3301 83.9661 81.6601 84.8861C80.7201 86.1761 80.9101 87.1661 80.9001 88.7861C80.8901 91.0261 80.8701 93.2561 80.8601 95.4961C80.8601 95.9461 81.2601 96.0861 81.6501 96.0961C95.9201 96.5461 110.19 97.0061 124.46 97.4561L132.68 97.7161V204.336C132.1 204.726 132.26 205.896 133.17 205.936L153.53 206.936C154.13 206.966 154.4 206.486 154.36 206.026C154.39 205.936 154.42 205.836 154.42 205.716V98.4061C167.08 98.8061 179.75 99.2161 192.41 99.6161C197.54 99.7762 202.68 99.9461 207.81 100.106C207.96 100.136 208.12 100.136 208.28 100.096C208.51 100.066 208.69 99.9761 208.81 99.8361C208.98 99.6861 209.08 99.4761 209.03 99.2461C207.94 94.1361 206.85 89.0261 205.76 83.9161C205.67 83.4861 205.56 82.4661 205.49 82.6761C205.67 81.6261 206.37 80.4562 206.75 79.4762C207.74 76.9261 209.32 74.1562 209.87 71.4762L209.85 71.4861ZM133.03 8.26614C139.83 6.61614 146.14 3.40613 152.99 1.94613V33.4861C152.99 33.4861 152.99 33.5761 153.01 33.6261H133.04V8.27614L133.03 8.26614ZM152.68 205.176C148.82 204.986 144.95 204.796 141.09 204.606C141.43 204.526 141.72 204.256 141.72 203.806V179.796C141.72 178.686 139.99 178.676 139.99 179.796V203.806C139.99 204.216 140.22 204.476 140.52 204.586C138.48 204.486 136.45 204.386 134.41 204.286V97.7861C140.5 97.9762 146.59 98.1761 152.68 98.3661V205.176ZM204.03 84.1861C197.71 84.6561 191.38 84.8361 185.04 84.7161C184.48 84.7061 183.24 85.5361 184.36 85.5561C190.98 85.6761 197.59 85.4861 204.19 84.9661C204.76 87.6161 205.32 90.2661 205.89 92.9161C178.37 93.4161 150.84 93.5761 123.31 93.4161C122.34 93.4161 122.04 94.6761 123.17 94.6861C150.83 94.8561 178.5 94.6861 206.15 94.1861C206.48 95.7161 206.81 97.2561 207.13 98.7861L165.41 97.4561C142.76 96.7361 120.11 96.0161 97.4601 95.2961C92.4901 95.1361 87.5101 94.9762 82.5401 94.8161C82.5701 92.2361 82.6801 89.6361 82.5901 87.0561C82.5401 85.7061 82.4501 86.2061 83.3401 85.0761C84.1001 84.1061 84.8601 83.1361 85.6201 82.1661C92.4501 82.5061 99.2901 82.7261 106.13 82.8261C107.08 82.8361 107.42 81.6361 106.28 81.6161C99.4201 81.5162 92.5701 81.2861 85.7301 80.9361C84.9001 79.7061 84.1001 78.4462 83.2201 77.2561C82.5001 76.2861 82.6301 76.7962 82.6701 75.5661C82.7601 72.5361 82.7301 69.4961 82.7301 66.4661C89.2801 66.1461 95.8401 65.8361 102.39 65.5161C103.35 65.4661 103.66 64.1961 102.53 64.2461C95.9301 64.5661 89.3301 64.8861 82.7301 65.2061C82.7301 65.1161 82.7301 65.0261 82.7301 64.9461C82.7501 61.3061 82.7801 57.6561 82.8001 54.0161C82.8001 53.6861 82.8301 53.3461 82.8001 53.0061C82.8101 53.0061 82.8301 53.0061 82.8401 53.0061C84.0101 52.7961 85.4001 51.7961 86.5701 51.0761C86.9601 51.1961 87.3701 51.2061 87.9101 51.1761C88.3201 51.1461 88.6501 50.9061 88.7601 50.6761C97.8301 50.7961 106.91 50.9161 115.98 51.0361C116.63 51.0361 117.75 50.0761 116.62 50.0661C106.93 49.9361 97.2401 49.8061 87.5501 49.6861C87.5401 49.6761 87.5301 49.6561 87.5101 49.6461C86.1601 48.6061 84.8501 47.3761 83.4001 46.4861C83.2601 46.3961 83.0201 46.2561 82.8501 46.1061C82.7201 45.5661 82.8601 44.7761 82.8701 44.2361C82.8901 41.1361 82.9101 38.0261 82.9301 34.9261H206.9C205.61 37.0761 204.32 39.2261 203.03 41.3661C202.95 41.5061 202.98 41.7361 203.07 41.8661C204.38 43.6061 206.22 45.4061 207.19 47.3561C207.28 47.5461 207.32 47.5761 207.32 47.5561C207.39 47.9161 207.32 48.3661 207.32 48.7161V53.1661C207.32 55.7261 207.25 56.2961 206.04 58.4961C205.42 59.6261 204.51 60.6761 204.36 61.8261C197.25 61.7161 190.15 61.8961 183.06 62.3861C182.2 62.4461 181.7 63.4761 182.85 63.3961C190.04 62.8961 197.24 62.7161 204.45 62.8561C205.13 65.2661 206.73 67.9062 207.88 70.1161C208.01 70.3661 208.24 70.7161 208.3 71.0061C208.3 71.0162 208.3 71.0161 208.3 71.0261C208.3 71.0461 208.3 71.0561 208.3 71.0761C208.23 71.9661 207.5 73.1361 207.17 73.9661C206.17 76.5361 205.14 79.0961 204.16 81.6761C203.75 82.7461 203.79 83.1461 204.01 84.2061L204.03 84.1861Z" fill="#3E6E7B"/>
<path d="M202.33 40.1061C188.12 39.7861 173.91 39.8661 159.7 40.3261C158.83 40.3561 158.35 41.3861 159.5 41.3461C173.56 40.8861 187.63 40.8261 201.7 41.1361C202.39 41.1561 203.46 40.1261 202.33 40.1061Z" fill="#3E6E7B"/>
<path d="M102.84 38.5961C97.4601 38.4761 92.0701 38.3661 86.6801 38.2461C85.7201 38.2261 85.4101 39.4661 86.5401 39.4861C91.9301 39.6061 97.3101 39.7161 102.7 39.8361C103.66 39.8561 103.97 38.6161 102.84 38.5961Z" fill="#3E6E7B"/>
<path d="M109.43 88.6362C102.7 88.5162 95.9701 88.4062 89.2401 88.2862C88.5501 88.2762 87.4801 89.3062 88.6101 89.3262C95.3401 89.4462 102.07 89.5562 108.8 89.6762C109.49 89.6862 110.56 88.6562 109.43 88.6362Z" fill="#3E6E7B"/>
<path d="M199.34 88.8162H200.49C200.84 88.8162 201.37 88.5462 201.42 88.1562C201.47 87.7262 200.97 87.6362 200.66 87.6362H199.51C199.16 87.6362 198.63 87.9062 198.58 88.2962C198.53 88.7262 199.03 88.8162 199.34 88.8162Z" fill="#3E6E7B"/>
<path d="M91.75 76.6461C89.92 76.5361 88.1 76.4261 86.27 76.3161C85.93 76.2961 85.33 76.3461 85.09 76.6361C84.91 76.8461 84.81 77.0861 85.22 77.1161L90.7 77.4461C91.04 77.4661 91.64 77.4161 91.88 77.1261C92.06 76.9161 92.16 76.6761 91.75 76.6561V76.6461Z" fill="#3E6E7B"/>
<path d="M199.17 57.8562C196.38 57.7462 193.59 57.6362 190.8 57.5362C190.22 57.5162 189 58.3462 190.12 58.3962C192.91 58.5062 195.7 58.6162 198.49 58.7162C199.07 58.7362 200.29 57.9062 199.17 57.8562Z" fill="#3E6E7B"/>
<path d="M196.5 47.7961H186.69C186.35 47.7961 184.8 48.4561 185.6 48.4561H195.41C195.75 48.4561 197.3 47.7961 196.5 47.7961Z" fill="#3E6E7B"/>
<path d="M148.64 148.766C148.5 148.296 148.57 147.886 148.84 147.476C149.45 146.546 147.96 145.676 147.35 146.606C146.84 147.376 146.71 148.346 146.98 149.236C147.3 150.296 148.97 149.846 148.65 148.776L148.64 148.766Z" fill="#3E6E7B"/>
<path d="M147.68 172.476V174.686C147.64 174.756 147.61 174.826 147.61 174.916V194.986C147.61 195.716 148.95 195.546 148.95 194.906V175.526C149.21 175.406 149.41 175.156 149.41 174.786V172.476C149.41 171.366 147.68 171.356 147.68 172.476Z" fill="#3E6E7B"/>
<path d="M148.16 199.856C147.05 199.856 147.04 201.586 148.16 201.586C149.28 201.586 149.28 199.856 148.16 199.856Z" fill="#FCAE30"/>
<path d="M148.56 124.636C148.44 118.096 148.32 111.566 148.2 105.026C148.19 104.396 146.86 104.636 146.87 105.156C146.99 111.696 147.11 118.226 147.23 124.766C147.24 125.396 148.57 125.156 148.56 124.636Z" fill="#3E6E7B"/>
<path d="M141.19 154.176V109.936C141.19 109.536 139.87 109.786 139.87 110.286V154.526C139.87 154.926 141.19 154.676 141.19 154.176Z" fill="#3E6E7B"/>
<path d="M144.85 155.666V136.506C144.85 135.816 143.51 136.006 143.51 136.606V155.766C143.51 156.456 144.85 156.266 144.85 155.666Z" fill="#3E6E7B"/>
<path d="M139.42 12.6062C138.94 12.6062 138.01 13.3262 138.9 13.3262C139.38 13.3262 140.31 12.6062 139.42 12.6062Z" fill="#FCAE30"/>
<path d="M142.15 10.4062V27.2862C142.15 27.5662 143.47 27.3562 143.47 26.9362V10.0562C143.47 9.7762 142.15 9.98621 142.15 10.4062Z" fill="#3E6E7B"/>
<path d="M138.95 17.136V29.906C138.95 30.526 140.28 30.286 140.28 29.776V17.006C140.28 16.386 138.95 16.626 138.95 17.136Z" fill="#3E6E7B"/>
<path d="M150.35 7.08605V19.3961C150.35 20.0861 151.69 19.8861 151.69 19.2961V6.98606C151.69 6.29606 150.35 6.49605 150.35 7.08605Z" fill="#3E6E7B"/>
<path d="M140.74 171.626V162.046C140.74 161.356 139.4 161.556 139.4 162.146V171.726C139.4 172.416 140.74 172.216 140.74 171.626Z" fill="#3E6E7B"/>
<path d="M138.46 107.306V99.5562C138.46 98.9262 137.13 99.1762 137.13 99.6862V107.436C137.13 108.066 138.46 107.816 138.46 107.306Z" fill="#3E6E7B"/>
<path d="M59.3599 196.836H73.6699V149.346C90.4499 148.206 103.75 134.196 103.75 117.136C103.75 113.086 100.46 109.796 96.4099 109.796C92.3599 109.796 89.0699 113.086 89.0699 117.136C89.0699 126.096 82.3399 133.516 73.6699 134.606V114.466C73.6699 110.516 70.4699 107.316 66.5199 107.316C62.5699 107.316 59.3699 110.516 59.3699 114.466V151.226C51.9699 149.136 46.5299 142.336 46.5299 134.276C46.5299 130.226 43.2399 126.936 39.1899 126.936C35.1399 126.936 31.8499 130.226 31.8499 134.276C31.8499 150.456 43.8199 163.896 59.3699 166.216V196.836H59.3599Z" fill="#FFFFEB"/>
<path d="M58.6099 166.256C59.1699 166.806 58.6099 170.456 58.6099 171.256V190.666C58.6099 192.576 58.4099 194.746 58.5599 196.836H60.0799C59.8699 194.406 60.1099 191.806 60.1099 189.386V166.216C60.1099 165.916 59.8799 165.546 59.5599 165.496C45.2099 163.046 32.0799 150.356 32.6099 134.996C32.7399 131.166 34.8999 127.696 39.1799 127.696C43.7099 127.696 45.2899 131.196 45.7999 134.986C46.1299 137.436 46.4099 139.676 47.4799 141.966C49.7899 146.946 54.0099 150.286 59.1699 151.956C59.6399 152.106 60.1199 151.706 60.1199 151.236V117.296C60.1199 114.166 60.0599 110.826 63.2899 108.946C67.8999 106.256 72.4499 110.036 72.9299 114.716C73.0199 115.606 72.9299 116.556 72.9299 117.446V134.606C72.9299 135.136 73.4099 135.406 73.8799 135.326C79.4299 134.406 84.2999 131.426 87.2299 126.546C88.4499 124.506 89.2499 122.246 89.6099 119.906C90.1099 116.676 89.7299 113.406 93.0899 111.446C97.7099 108.746 102.57 112.296 103 117.136C102.64 133.716 90.2199 147.116 73.6699 148.596C73.2699 148.636 72.9199 148.906 72.9199 149.346V195.006C72.9199 195.606 72.9499 196.226 72.9199 196.826H74.5199C74.7099 194.256 74.4099 191.506 74.4099 189.036V156.836C74.4099 154.986 73.8199 152.046 74.4099 150.286C74.5299 149.946 74.5399 149.796 74.5299 149.736C74.5599 149.736 74.6199 149.736 74.7299 149.666C75.6599 149.166 79.1599 149.296 80.6199 148.866C85.0199 147.596 89.1199 145.376 92.6399 142.446C100.21 136.136 104.28 126.886 104.49 117.126C103.91 110.686 96.8199 106.376 91.2999 110.866C88.7099 112.966 88.6099 115.476 88.2599 118.526C87.9199 121.546 86.9699 124.406 85.1999 126.886C82.7099 130.376 79.6499 131.406 76.1399 133.316C74.4499 134.236 74.7899 134.786 74.4199 133.666C74.1499 132.826 74.4199 131.376 74.4199 130.476V120.256C74.4199 115.686 75.1499 110.336 70.5099 107.626C65.0399 104.426 59.0199 108.646 58.6199 114.486C58.3299 118.616 58.6199 122.876 58.6199 127.016V146.196C58.6199 147.196 59.1399 149.996 58.6199 150.916C58.9899 150.266 56.0199 149.096 54.8999 148.366C51.7299 146.286 49.2899 143.116 48.1099 139.506C46.9399 135.926 47.9299 132.056 45.3299 129.016C43.2999 126.636 40.0399 125.676 37.0499 126.506C29.2599 128.646 30.7499 138.166 32.5799 144.056C35.0199 151.916 40.4499 158.706 47.5499 162.846C49.1499 163.776 50.8299 164.576 52.5699 165.226C53.7399 165.666 55.2099 166.306 56.4699 166.416C55.1899 166.306 59.2099 166.826 58.6199 166.256H58.6099Z" fill="#3E6E7B"/>
<path d="M68.3799 121.256V144.676C68.3799 145.086 69.2099 144.946 69.2099 144.606V121.186C69.2099 120.776 68.3799 120.916 68.3799 121.256Z" fill="#3E6E7B"/>
<path d="M69.7998 154.616V160.826C69.7998 161.036 70.6198 160.896 70.6198 160.606V154.396C70.6198 154.186 69.7998 154.326 69.7998 154.616Z" fill="#3E6E7B"/>
<path d="M68.3899 171.546V187.906C68.3899 188.086 69.2099 187.956 69.2099 187.686V171.326C69.2099 171.146 68.3899 171.276 68.3899 171.546Z" fill="#3E6E7B"/>
<path d="M64.71 132.536V156.796C64.71 157.236 65.54 157.116 65.54 156.736V132.476C65.54 132.036 64.71 132.156 64.71 132.536Z" fill="#3E6E7B"/>
<path d="M64.72 163.086V167.316C64.72 167.566 65.54 167.406 65.54 167.096V162.866C65.54 162.616 64.72 162.776 64.72 163.086Z" fill="#3E6E7B"/>
<path d="M63.3098 113.076V118.436C63.3098 118.826 64.1298 118.676 64.1298 118.356V112.996C64.1298 112.606 63.3098 112.756 63.3098 113.076Z" fill="#3E6E7B"/>
<path d="M54.4099 155.096C47.7599 149.716 41.9999 142.466 42.4599 133.456C42.4599 133.296 41.6599 133.406 41.6399 133.676C41.1799 142.716 46.9699 149.986 53.6399 155.386C53.8299 155.536 54.5599 155.226 54.4099 155.096Z" fill="#3E6E7B"/>
<path d="M47.46 154.336C45.68 152.886 44.26 151.106 43.26 149.036C43.11 148.726 42.31 148.976 42.44 149.256C43.46 151.366 44.89 153.186 46.71 154.666C46.96 154.866 47.72 154.536 47.47 154.326L47.46 154.336Z" fill="#3E6E7B"/>
<path d="M41.7899 152.926C37.1799 147.866 34.7899 141.286 35.0999 134.446C35.1199 134.016 34.2899 134.126 34.2699 134.506C33.9499 141.446 36.3599 148.156 41.0399 153.286C41.2999 153.566 42.0699 153.236 41.7899 152.916V152.926Z" fill="#3E6E7B"/>
<path d="M93.08 118.156C92.03 123.066 89.92 127.566 86.8 131.506C86.76 131.566 87.46 131.546 87.61 131.356C90.72 127.416 92.84 122.916 93.89 118.006C93.93 117.836 93.13 117.956 93.08 118.156Z" fill="#3E6E7B"/>
<path d="M79.7298 136.046C78.8198 137.206 77.4598 137.766 75.9898 137.566C75.5898 137.506 75.1598 138.086 75.7098 138.156C77.5098 138.406 79.2898 137.716 80.4098 136.286C80.7298 135.876 79.9598 135.746 79.7298 136.046Z" fill="#3E6E7B"/>
<path d="M97.9399 113.216C97.9199 113.046 97.0999 113.216 97.1199 113.436C97.4699 116.406 96.9099 119.236 95.4699 121.846C95.3999 121.966 96.1599 121.916 96.2799 121.706C97.7399 119.066 98.2999 116.206 97.9399 113.216Z" fill="#3E6E7B"/>
<path d="M99.5599 122.906C96.1299 133.446 86.8799 141.566 75.9299 143.446C75.5199 143.516 75.2799 144.066 75.8399 143.966C87.1899 142.016 96.8199 133.786 100.38 122.826C100.49 122.496 99.6599 122.596 99.5599 122.906Z" fill="#3E6E7B"/>
<path d="M62.8599 182.966V193.636C62.8599 193.856 63.8299 193.696 63.8299 193.376V182.706C63.8299 182.486 62.8599 182.646 62.8599 182.966Z" fill="#3E6E7B"/>
<path d="M102.59 207.556C102.61 208.686 101.52 209.516 100.73 210.126C100.44 210.346 100.43 210.936 100.71 211.176C102.45 212.586 104.91 214.546 104.27 217.106C103.39 220.606 98.8101 218.166 96.9601 217.036C96.6301 216.836 96.3101 216.926 96.0901 217.136L64.5101 224.826C64.1501 224.916 63.9901 225.186 63.9701 225.466C63.9401 225.546 63.9101 225.636 63.9101 225.736C63.7601 228.756 61.0801 231.026 58.0501 230.216C56.2001 229.726 54.6801 228.106 55.3801 226.086C55.9501 224.456 57.5701 223.526 58.9601 222.686C59.5801 222.316 59.3701 221.336 58.6201 221.306C57.2201 221.246 55.8601 220.916 54.6801 220.126C52.8301 218.886 52.3701 216.586 54.4001 215.226C57.0101 213.486 59.9001 215.526 61.8501 217.446C61.3601 217.886 61.7201 218.916 62.5201 218.716L95.0101 210.806C95.3401 210.936 95.7401 210.866 95.8901 210.486C96.0701 210.306 96.1201 210.056 96.0701 209.816C96.5201 208.266 97.5101 206.946 99.0401 206.266C100.21 205.746 102.55 205.376 102.59 207.566V207.556Z" fill="#FFFFEB"/>
<path d="M94.6601 209.376L63.4601 216.976C60.7601 214.166 55.5001 210.926 52.4101 215.106C49.7801 218.656 53.2401 221.516 56.6201 222.466C55.1801 223.496 53.9401 224.796 53.7101 226.646C53.4501 228.786 54.9301 230.556 56.8201 231.366C60.8001 233.076 64.9401 230.266 65.3601 226.156L96.4601 218.586C96.4601 218.586 96.5401 218.556 96.5801 218.546C99.1301 220.036 103.42 221.866 105.28 218.586C107.02 215.526 104.65 212.646 102.39 210.686C103.41 209.746 104.2 208.556 104.04 207.076C103.89 205.646 102.79 204.696 101.41 204.466C98.2801 203.946 95.5001 206.556 94.6501 209.396L94.6601 209.376ZM102.59 207.556C102.61 208.686 101.52 209.516 100.73 210.126C100.44 210.346 100.43 210.936 100.71 211.176C102.45 212.586 104.91 214.546 104.27 217.106C103.39 220.606 98.8101 218.166 96.9601 217.036C96.6301 216.836 96.3101 216.926 96.0901 217.136L64.5101 224.826C64.1501 224.916 63.9901 225.186 63.9701 225.466C63.9401 225.546 63.9101 225.636 63.9101 225.736C63.7601 228.756 61.0801 231.026 58.0501 230.216C56.2001 229.726 54.6801 228.106 55.3801 226.086C55.9501 224.456 57.5701 223.526 58.9601 222.686C59.5801 222.316 59.3701 221.336 58.6201 221.306C57.2201 221.246 55.8601 220.916 54.6801 220.126C52.8301 218.886 52.3701 216.586 54.4001 215.226C57.0101 213.486 59.9001 215.526 61.8501 217.446C61.3601 217.886 61.7201 218.916 62.5201 218.716L95.0101 210.806C95.3401 210.936 95.7401 210.866 95.8901 210.486C96.0701 210.306 96.1201 210.056 96.0701 209.816C96.5201 208.266 97.5101 206.946 99.0401 206.266C100.21 205.746 102.55 205.376 102.59 207.566V207.556Z" fill="#3E6E7B"/>
<path d="M62.7501 221.496L84.0501 216.306C84.5101 216.196 84.0501 215.206 83.6801 215.296L62.3801 220.486C61.9201 220.596 62.3801 221.586 62.7501 221.496Z" fill="#3E6E7B"/>
<path d="M87.7801 215.656L91.3701 214.786C91.5401 214.746 91.1401 213.736 90.8401 213.816L87.2501 214.686C87.0801 214.726 87.4801 215.736 87.7801 215.656Z" fill="#3E6E7B"/>
<path d="M99.1001 153.226C99.1001 151.676 100.36 150.426 101.9 150.426C103.44 150.426 104.7 151.686 104.7 153.226C104.7 156.646 107.27 159.486 110.58 159.896V152.206C110.58 150.696 111.8 149.476 113.31 149.476C114.82 149.476 116.04 150.696 116.04 152.206V166.246C118.87 165.446 120.95 162.846 120.95 159.766C120.95 158.216 122.2 156.966 123.75 156.966C125.3 156.966 126.55 158.216 126.55 159.766C126.55 165.946 121.98 171.086 116.04 171.966V183.846C116.04 185.356 114.82 186.576 113.31 186.576C111.8 186.576 110.58 185.356 110.58 183.846V165.526C104.17 165.086 99.0901 159.736 99.0901 153.226H99.1001Z" fill="#3E6E7B"/>
<path d="M240.9 176.296C240.9 174.906 242.03 173.776 243.42 173.776C244.81 173.776 245.94 174.906 245.94 176.296C245.94 179.366 248.25 181.916 251.22 182.286V175.376C251.22 174.016 252.32 172.926 253.67 172.926C255.03 172.926 256.12 174.026 256.12 175.376V187.986C258.66 187.266 260.52 184.936 260.52 182.176C260.52 180.786 261.65 179.656 263.04 179.656C264.43 179.656 265.56 180.786 265.56 182.176C265.56 187.726 261.45 192.336 256.12 193.126V203.786C256.12 205.146 255.02 206.236 253.67 206.236C252.31 206.236 251.22 205.136 251.22 203.786V187.336C245.47 186.946 240.9 182.136 240.9 176.286V176.296Z" fill="#3E6E7B"/>
<path d="M250.86 140.686C247.54 140.686 244.86 143.376 244.86 146.686V147.006C244.86 152.176 240.66 156.376 235.49 156.376H231.97V124.106C231.97 120.306 228.89 117.216 225.08 117.216C221.27 117.216 218.19 120.296 218.19 124.106V141.946C214.58 141.766 211.7 138.776 211.7 135.126V134.196C211.7 130.876 209.01 128.196 205.7 128.196C202.39 128.196 199.7 130.886 199.7 134.196V135.126C199.7 145.396 207.97 153.776 218.2 153.966V169.826H214.36C209.19 169.826 204.99 165.626 204.99 160.456C204.99 157.136 202.3 154.456 198.99 154.456C195.68 154.456 192.99 157.146 192.99 160.456C192.99 172.246 202.58 181.836 214.37 181.836H218.21V195.066H231.98V168.386H235.5C247.29 168.386 256.88 158.796 256.88 147.006V146.686C256.88 143.366 254.19 140.686 250.88 140.686H250.86Z" fill="#FFFFEB"/>
<path d="M251.17 140.026C251.08 139.986 250.98 139.966 250.86 139.986C250.73 139.976 250.63 139.986 250.54 140.036C247.95 140.376 245.69 141.606 244.65 144.166C243.97 145.826 244.32 147.596 243.84 149.306C242.74 153.296 239.19 155.446 235.22 155.676C234.37 155.726 232.94 155.326 232.58 155.676C232.59 155.326 232.64 154.946 232.65 154.766C232.84 152.216 232.65 149.576 232.65 147.016V127.816C232.65 123.446 232.62 118.776 227.65 116.966C222.21 114.986 217.67 119.376 217.48 124.626C217.39 127.256 217.48 129.916 217.48 132.546C217.48 134.556 218.39 139.556 217.48 141.396C217.46 141.426 217.46 141.446 217.45 141.466C217.42 141.466 217.39 141.466 217.34 141.476C216.6 141.676 213.41 138.516 213.18 138.106C212.01 136.016 212.76 133.766 211.9 131.656C210.89 129.166 208.38 127.476 205.69 127.476C197.61 127.476 198.34 137.406 200.46 142.546C201.75 145.666 203.85 148.426 206.52 150.506C207.83 151.526 209.26 152.386 210.79 153.046C211.91 153.536 213.07 153.916 214.26 154.186C214.29 154.186 217.61 154.656 217.19 154.306C217.39 154.476 217.47 154.916 217.47 156.096V160.066C217.47 162.766 218.16 166.546 217.47 169.186C217.05 169.206 216.53 169.146 216.24 169.106C214 168.826 212.1 169.186 209.95 167.916C204.52 164.736 207.46 158.256 202.8 154.956C196.67 150.616 191.72 157.246 192.4 163.006C193.31 170.736 198.4 177.566 205.54 180.676C208.85 182.116 212.26 182.486 215.83 182.506C216.35 182.506 216.88 182.516 217.4 182.506C217.46 182.506 217.51 182.506 217.56 182.506C217.7 183.436 217.47 184.766 217.47 185.616C217.47 188.216 217.01 191.766 217.22 195.046H218.86C218.65 190.656 218.86 186.206 218.86 181.816C218.86 181.436 218.54 181.116 218.16 181.116C213.14 181.116 208.38 180.926 203.89 178.286C197.85 174.746 191.44 165.746 194.42 158.556C194.83 156.316 196.34 155.166 198.95 155.126C202.18 155.426 203.95 157.196 204.26 160.436C204.54 161.526 204.44 162.576 204.82 163.686C205.46 165.556 206.61 167.186 208.18 168.396C211.18 170.716 214.6 170.496 218.17 170.496C218.55 170.496 218.87 170.176 218.87 169.796V153.936C218.87 153.546 218.55 153.256 218.17 153.236C209.22 152.776 198.39 144.336 200.37 134.166C200.93 131.306 202.7 129.276 205.68 128.856C209.38 128.346 210.43 132.116 210.99 134.626C211.22 135.646 211.08 136.646 211.45 137.676C212.49 140.576 215.05 142.176 217.99 142.586C218.43 142.646 218.87 142.416 218.87 141.916V126.696C218.87 122.696 219.86 117.896 225.06 117.896C229.85 117.896 231.25 122.276 231.25 126.136V156.346C231.25 156.726 231.57 157.046 231.95 157.046C235.44 157.046 238.78 157.176 241.69 154.886C243.37 153.566 244.61 151.716 245.18 149.656C246.19 146.006 245.28 141.916 250.85 141.356C262.06 142.486 253.39 158.706 249.2 162.426C244.19 166.876 238.36 167.656 231.95 167.656C231.57 167.656 231.25 167.976 231.25 168.356V194.456C231.25 194.646 231.25 194.846 231.25 195.036H232.88C233.23 190.596 232.65 185.766 232.65 181.486V171.756C232.65 171.016 232.48 169.936 232.58 169.116C232.93 169.306 233.88 169.056 234.56 169.046C243.17 168.966 251.09 164.876 255.12 157.026C258.06 151.296 259.73 141.106 251.16 139.986L251.17 140.026Z" fill="#3E6E7B"/>
<path d="M227.75 146.696V167.816C227.75 168.056 228.65 167.896 228.65 167.576V146.456C228.65 146.216 227.75 146.376 227.75 146.696Z" fill="#3E6E7B"/>
<path d="M223.4 154.696V160.756C223.4 161.146 224.3 160.966 224.3 160.656V154.596C224.3 154.206 223.4 154.386 223.4 154.696Z" fill="#3E6E7B"/>
<path d="M223.87 171.846V185.666C223.87 185.806 224.77 185.676 224.77 185.426V171.606C224.77 171.466 223.87 171.596 223.87 171.846Z" fill="#3E6E7B"/>
<path d="M226.35 122.006V131.786C226.35 131.956 227.25 131.826 227.25 131.546V121.766C227.25 121.596 226.35 121.726 226.35 122.006Z" fill="#3E6E7B"/>
<path d="M222.16 127.056V129.846C222.16 130.256 223.06 130.086 223.06 129.746V126.946C223.06 126.536 222.16 126.706 222.16 127.046V127.056Z" fill="#3E6E7B"/>
<path d="M249.43 149.086C248.22 151.896 246.99 154.856 244.78 157.046C241.74 160.056 237.98 160.176 233.96 159.936C233.54 159.916 233.03 160.526 233.64 160.556C237.13 160.766 240.72 160.846 243.73 158.796C247.06 156.526 248.74 152.746 250.28 149.166C250.48 148.706 249.57 148.736 249.42 149.086H249.43Z" fill="#3E6E7B"/>
<path d="M251.73 153.866C250.99 155.766 249.84 157.406 248.33 158.766C248.11 158.956 248.97 158.886 249.15 158.726C250.7 157.346 251.87 155.656 252.62 153.726C252.7 153.516 251.83 153.616 251.73 153.866Z" fill="#3E6E7B"/>
<path d="M228.66 195.066V181.946C228.66 181.456 227.75 181.576 227.75 182.006V195.066H228.66Z" fill="#3E6E7B"/>
<path d="M228.21 175.716V177.576C228.21 178.056 229.12 177.926 229.12 177.516V175.656C229.12 175.176 228.21 175.306 228.21 175.716Z" fill="#3E6E7B"/>
<path d="M213.09 173.156C206.6 172.266 201.81 167.366 200.98 160.886C200.94 160.576 200.04 160.786 200.08 161.126C200.93 167.766 205.93 172.746 212.54 173.656C212.83 173.696 213.6 173.226 213.09 173.156Z" fill="#3E6E7B"/>
<path d="M212.16 176.746C211.34 176.776 210.57 176.626 209.82 176.306C209.42 176.136 208.78 176.716 209.31 176.936C210.2 177.306 211.13 177.466 212.09 177.436C212.61 177.416 212.77 176.726 212.16 176.746Z" fill="#3E6E7B"/>
<path d="M211.4 148.056C209.41 148.006 206.94 144.626 205.84 143.156C204.12 140.856 203.1 138.246 203.54 135.346C203.59 135.026 202.69 135.196 202.64 135.476C202.17 138.586 203.32 141.386 205.24 143.796C206.58 145.486 208.67 148.476 211.04 148.526C211.35 148.526 212 148.076 211.4 148.056Z" fill="#3E6E7B"/>
<path d="M212.04 142.626C210.57 142.376 209.45 141.176 209.24 139.716C209.22 139.556 208.31 139.736 208.34 139.956C208.56 141.496 209.77 142.706 211.3 142.966C211.49 142.996 211.76 142.946 211.93 142.846C211.99 142.816 212.25 142.666 212.04 142.626Z" fill="#3E6E7B"/>
<path d="M220.76 139.006V147.386C220.76 147.606 221.66 147.456 221.66 147.146V138.766C221.66 138.546 220.76 138.696 220.76 139.006Z" fill="#3E6E7B"/>
<path d="M227.98 136.846V140.106C227.98 140.496 228.88 140.316 228.88 139.996V136.736C228.88 136.346 227.98 136.526 227.98 136.846Z" fill="#3E6E7B"/>
<path d="M30.33 179.486C29.19 179.486 28.27 180.406 28.27 181.546V181.656C28.27 183.426 26.83 184.866 25.06 184.866H23.85V173.816C23.85 172.516 22.79 171.456 21.49 171.456C20.19 171.456 19.13 172.516 19.13 173.816V179.926C17.89 179.866 16.91 178.846 16.91 177.586V177.266C16.91 176.126 15.99 175.206 14.85 175.206C13.71 175.206 12.79 176.126 12.79 177.266V177.586C12.79 181.106 15.62 183.976 19.13 184.036V189.466H17.81C16.04 189.466 14.6 188.026 14.6 186.256C14.6 185.116 13.68 184.196 12.54 184.196C11.4 184.196 10.48 185.116 10.48 186.256C10.48 190.296 13.77 193.576 17.8 193.576H19.12V198.596C19.12 199.896 20.18 200.956 21.48 200.956C22.78 200.956 23.84 199.896 23.84 198.596V188.966H25.05C29.09 188.966 32.37 185.676 32.37 181.646V181.536C32.37 180.396 31.45 179.476 30.31 179.476L30.33 179.486Z" fill="#3E6E7B"/>
<path d="M249.55 218.826C248.59 218.666 247.6 218.716 246.68 218.996C246.57 219.026 246.43 219.066 246.29 219.106C246.83 217.646 247.15 216.086 247.54 214.566C247.61 214.306 247.35 214.036 247.08 214.176C245.94 214.776 244.87 215.486 243.89 216.286C243.71 213.906 242.2 211.696 241.13 209.636C241.02 209.426 240.7 209.386 240.57 209.596C239.55 211.186 238.83 212.886 238.4 214.706C238.18 214.376 237.94 214.066 237.67 213.776C237.13 213.186 235.94 211.976 235.04 212.176C234.08 212.396 234.5 214.006 234.55 214.676C234.65 215.946 234.82 217.206 235.12 218.446C233.83 218.576 232.58 218.876 231.4 219.436C230.16 220.016 229.73 220.396 230.84 221.396C233.29 223.606 236.03 225.756 239.48 225.786C239.48 225.786 239.48 225.786 239.49 225.796C239.53 225.836 239.58 225.856 239.62 225.866C239.71 225.926 239.83 225.946 239.94 225.906C240.12 225.896 240.3 225.826 240.47 225.736C244.32 224.976 247.69 222.776 250.82 220.496C252.13 219.546 250.53 219.006 249.53 218.836L249.55 218.826Z" fill="#FFFFEB"/>
<path d="M249.55 218.826C248.59 218.666 247.6 218.716 246.68 218.996C246.57 219.026 246.43 219.066 246.29 219.106C246.83 217.646 247.15 216.086 247.54 214.566C247.61 214.306 247.35 214.036 247.08 214.176C245.94 214.776 244.87 215.486 243.89 216.286C243.71 213.906 242.2 211.696 241.13 209.636C241.02 209.426 240.7 209.386 240.57 209.596C239.55 211.186 238.83 212.886 238.4 214.706C238.18 214.376 237.94 214.066 237.67 213.776C237.13 213.186 235.94 211.976 235.04 212.176C234.08 212.396 234.5 214.006 234.55 214.676C234.65 215.946 234.82 217.206 235.12 218.446C233.83 218.576 232.58 218.876 231.4 219.436C230.16 220.016 229.73 220.396 230.84 221.396C233.29 223.606 236.03 225.756 239.48 225.786C239.48 225.786 239.48 225.786 239.49 225.796C239.53 225.836 239.58 225.856 239.62 225.866C239.71 225.926 239.83 225.946 239.94 225.906C240.12 225.896 240.3 225.826 240.47 225.736C244.32 224.976 247.69 222.776 250.82 220.496C252.13 219.546 250.53 219.006 249.53 218.836L249.55 218.826ZM232.78 222.206C232.26 221.786 231.6 221.346 231.19 220.816C230.96 220.516 230.85 220.636 231.09 220.306C231.22 220.126 231.67 220.006 231.86 219.926C232.95 219.436 234.11 219.166 235.29 219.056C235.3 219.096 235.31 219.136 235.32 219.186C235.79 220.796 236.5 222.296 237.47 223.626C236 222.916 234.71 221.896 233.67 220.616C233.61 220.546 233.36 220.616 233.42 220.696C234.58 222.126 236.05 223.226 237.72 223.956C238.03 224.346 238.35 224.726 238.71 225.076C236.47 224.826 234.52 223.636 232.77 222.206H232.78ZM239.76 224.736C238.73 221.896 237.76 219.026 236.86 216.136C236.82 216.016 236.56 216.066 236.6 216.186C237.52 219.116 238.5 222.026 239.55 224.906C239.57 224.956 239.63 224.976 239.69 224.966C239.67 224.986 239.65 225.006 239.63 225.026C239.34 224.766 239.06 224.496 238.8 224.206C238.81 224.186 238.8 224.166 238.76 224.146H238.74C237.66 222.956 236.85 221.546 236.29 220.026C236.12 219.576 235.99 219.116 235.86 218.646C235.86 218.596 235.85 218.556 235.82 218.516C235.66 217.886 235.53 217.256 235.43 216.626C235.34 216.056 235.27 215.486 235.22 214.916C235.19 214.566 235.17 214.206 235.15 213.856C235.13 213.476 234.95 213.156 235.37 213.026C236.27 212.766 237.57 214.576 237.97 215.216C238.57 216.166 238.96 217.236 239.24 218.316C239.45 219.136 239.65 220.006 239.79 220.896C239.79 220.946 239.79 220.996 239.81 221.036C239.99 222.286 240.03 223.556 239.75 224.746L239.76 224.736ZM240.58 219.576C240.58 219.486 240.58 219.406 240.58 219.316C240.58 218.986 240.58 218.646 240.58 218.316C240.58 217.806 240.61 217.296 240.64 216.776C240.7 215.756 240.79 214.736 240.92 213.716C240.94 213.576 240.67 213.586 240.66 213.716C240.51 214.906 240.4 216.096 240.35 217.286C240.33 217.806 240.32 218.326 240.31 218.846C240.31 219.096 240.25 219.436 240.28 219.736C240.07 218.746 239.8 217.796 239.5 216.936C239.33 216.446 239.12 215.966 238.88 215.496C239.23 213.676 239.88 211.986 240.82 210.406C241.9 212.376 243.29 214.536 243.26 216.796C242.28 217.656 241.4 218.626 240.61 219.676C240.61 219.636 240.61 219.606 240.59 219.566L240.58 219.576ZM240.36 225.046C240.45 224.686 240.52 224.306 240.56 223.926C242.04 222.236 243.39 220.436 244.58 218.536C244.66 218.406 244.4 218.376 244.34 218.476C243.23 220.256 241.98 221.936 240.61 223.526C240.67 222.676 240.63 221.806 240.51 220.936C241.42 219.576 242.48 218.356 243.69 217.296C243.78 217.276 243.85 217.216 243.89 217.126C244.77 216.366 245.73 215.686 246.75 215.106C246.4 216.566 246.09 218.096 245.49 219.476C245.38 219.566 245.29 219.676 245.25 219.816C245.23 219.866 245.23 219.926 245.25 219.986C245.09 220.296 244.92 220.596 244.72 220.886C244.1 221.796 243.32 222.586 242.49 223.306C242.12 223.626 241.75 223.926 241.36 224.216C241.24 224.306 240.74 224.766 240.36 225.046ZM250.12 220.196C249.88 220.366 249.65 220.526 249.41 220.696C248.77 221.146 248.12 221.586 247.46 222.006C245.65 223.156 243.76 224.156 241.71 224.756C241.73 224.736 241.76 224.716 241.78 224.706C242.32 224.286 242.85 223.856 243.36 223.386C244.81 222.326 246.32 221.346 247.88 220.456C248 220.386 247.74 220.386 247.68 220.416C246.43 221.126 245.21 221.896 244.03 222.716C244.23 222.506 244.42 222.296 244.61 222.076C245.11 221.486 245.49 220.846 245.82 220.186C245.88 220.156 245.92 220.096 245.94 220.026C245.94 220.006 245.94 219.986 245.95 219.966C245.95 219.936 245.95 219.916 245.95 219.886C245.95 219.886 245.95 219.866 245.96 219.856C246.39 219.536 247.85 219.386 248.18 219.366C248.79 219.336 249.88 219.316 250.38 219.696C250.48 219.726 250.58 219.756 250.68 219.776C250.49 219.906 250.31 220.046 250.12 220.176V220.196Z" fill="#3E6E7B"/>
<path d="M44.6401 226.546C43.6801 226.386 42.6901 226.436 41.7701 226.716C41.6601 226.746 41.5201 226.786 41.3801 226.826C41.9201 225.366 42.2401 223.806 42.6301 222.286C42.7001 222.026 42.4401 221.756 42.1701 221.896C41.0301 222.496 39.9601 223.206 38.9801 224.006C38.8001 221.626 37.2901 219.416 36.2201 217.356C36.1101 217.146 35.7901 217.106 35.6601 217.316C34.6401 218.906 33.9201 220.606 33.4901 222.426C33.2701 222.096 33.0301 221.786 32.7601 221.496C32.2201 220.906 31.0301 219.696 30.1301 219.896C29.1701 220.116 29.5901 221.726 29.6401 222.396C29.7401 223.666 29.9101 224.926 30.2101 226.166C28.9201 226.296 27.6701 226.596 26.4901 227.156C25.2501 227.736 24.8201 228.116 25.9301 229.116C28.3801 231.326 31.1201 233.476 34.5701 233.506C34.5701 233.506 34.5701 233.506 34.5801 233.516C34.6201 233.556 34.6701 233.576 34.7101 233.586C34.8001 233.646 34.9201 233.666 35.0301 233.626C35.2101 233.616 35.3901 233.546 35.5601 233.456C39.4101 232.696 42.7801 230.496 45.9101 228.216C47.2201 227.266 45.6201 226.726 44.6201 226.556L44.6401 226.546Z" fill="#FFFFEB"/>
<path d="M44.6401 226.546C43.6801 226.386 42.6901 226.436 41.7701 226.716C41.6601 226.746 41.5201 226.786 41.3801 226.826C41.9201 225.366 42.2401 223.806 42.6301 222.286C42.7001 222.026 42.4401 221.756 42.1701 221.896C41.0301 222.496 39.9601 223.206 38.9801 224.006C38.8001 221.626 37.2901 219.416 36.2201 217.356C36.1101 217.146 35.7901 217.106 35.6601 217.316C34.6401 218.906 33.9201 220.606 33.4901 222.426C33.2701 222.096 33.0301 221.786 32.7601 221.496C32.2201 220.906 31.0301 219.696 30.1301 219.896C29.1701 220.116 29.5901 221.726 29.6401 222.396C29.7401 223.666 29.9101 224.926 30.2101 226.166C28.9201 226.296 27.6701 226.596 26.4901 227.156C25.2501 227.736 24.8201 228.116 25.9301 229.116C28.3801 231.326 31.1201 233.476 34.5701 233.506C34.5701 233.506 34.5701 233.506 34.5801 233.516C34.6201 233.556 34.6701 233.576 34.7101 233.586C34.8001 233.646 34.9201 233.666 35.0301 233.626C35.2101 233.616 35.3901 233.546 35.5601 233.456C39.4101 232.696 42.7801 230.496 45.9101 228.216C47.2201 227.266 45.6201 226.726 44.6201 226.556L44.6401 226.546ZM27.8701 229.926C27.3501 229.506 26.6901 229.066 26.2801 228.536C26.0501 228.236 25.9401 228.356 26.1801 228.026C26.3101 227.846 26.7601 227.726 26.9501 227.646C28.0401 227.156 29.2001 226.886 30.3801 226.776C30.3901 226.816 30.4001 226.856 30.4101 226.906C30.8801 228.516 31.5901 230.016 32.5601 231.346C31.0901 230.636 29.8001 229.616 28.7601 228.336C28.7001 228.266 28.4501 228.336 28.5101 228.416C29.6701 229.846 31.1401 230.946 32.8101 231.676C33.1201 232.066 33.4401 232.446 33.8001 232.796C31.5601 232.546 29.6101 231.356 27.8601 229.926H27.8701ZM34.8501 232.456C33.8201 229.616 32.8501 226.746 31.9501 223.856C31.9101 223.736 31.6501 223.786 31.6901 223.906C32.6101 226.836 33.5901 229.746 34.6401 232.626C34.6601 232.676 34.7201 232.696 34.7801 232.686C34.7601 232.706 34.7401 232.726 34.7201 232.746C34.4301 232.486 34.1501 232.216 33.8901 231.926C33.9001 231.906 33.8901 231.886 33.8501 231.866H33.8301C32.7501 230.676 31.9401 229.266 31.3801 227.746C31.2101 227.296 31.0801 226.836 30.9501 226.366C30.9501 226.316 30.9401 226.276 30.9101 226.236C30.7501 225.606 30.6201 224.976 30.5201 224.346C30.4301 223.776 30.3601 223.206 30.3101 222.636C30.2801 222.286 30.2601 221.926 30.2401 221.576C30.2201 221.196 30.0401 220.876 30.4601 220.746C31.3601 220.486 32.6601 222.296 33.0601 222.936C33.6601 223.886 34.0501 224.956 34.3301 226.036C34.5401 226.856 34.7401 227.726 34.8801 228.616C34.8801 228.666 34.8801 228.716 34.9001 228.756C35.0801 230.006 35.1201 231.276 34.8401 232.466L34.8501 232.456ZM35.6701 227.296C35.6701 227.206 35.6701 227.126 35.6701 227.036C35.6701 226.706 35.6701 226.366 35.6701 226.036C35.6701 225.526 35.7001 225.016 35.7301 224.496C35.7901 223.476 35.8801 222.456 36.0101 221.436C36.0301 221.296 35.7601 221.306 35.7501 221.436C35.6001 222.626 35.4901 223.816 35.4401 225.006C35.4201 225.526 35.4101 226.046 35.4001 226.566C35.4001 226.816 35.3401 227.156 35.3701 227.456C35.1601 226.466 34.8901 225.516 34.5901 224.656C34.4201 224.166 34.2101 223.686 33.9701 223.216C34.3201 221.396 34.9701 219.706 35.9101 218.126C36.9901 220.096 38.3801 222.256 38.3501 224.516C37.3701 225.376 36.4901 226.346 35.7001 227.396C35.7001 227.356 35.7001 227.326 35.6801 227.286L35.6701 227.296ZM35.4501 232.756C35.5401 232.396 35.6101 232.016 35.6501 231.636C37.1301 229.946 38.4801 228.146 39.6701 226.246C39.7501 226.116 39.4901 226.086 39.4301 226.186C38.3201 227.966 37.0701 229.646 35.7001 231.236C35.7601 230.386 35.7201 229.516 35.6001 228.646C36.5101 227.286 37.5701 226.066 38.7801 225.006C38.8701 224.986 38.9401 224.926 38.9801 224.836C39.8601 224.076 40.8201 223.396 41.8401 222.816C41.4901 224.276 41.1801 225.806 40.5801 227.186C40.4701 227.276 40.3801 227.386 40.3401 227.526C40.3201 227.576 40.3201 227.636 40.3401 227.696C40.1801 228.006 40.0101 228.306 39.8101 228.596C39.1901 229.506 38.4101 230.296 37.5801 231.016C37.2101 231.336 36.8401 231.636 36.4501 231.926C36.3301 232.016 35.8301 232.476 35.4501 232.756ZM45.2201 227.916C44.9801 228.086 44.7501 228.246 44.5101 228.416C43.8701 228.866 43.2201 229.306 42.5601 229.726C40.7501 230.876 38.8601 231.876 36.8101 232.476C36.8301 232.456 36.8601 232.436 36.8801 232.426C37.4201 232.006 37.9501 231.576 38.4601 231.106C39.9101 230.046 41.4201 229.066 42.9801 228.176C43.1001 228.106 42.8401 228.106 42.7801 228.136C41.5301 228.846 40.3101 229.616 39.1301 230.436C39.3301 230.226 39.5201 230.016 39.7101 229.796C40.2101 229.206 40.5901 228.576 40.9201 227.906C40.9801 227.876 41.0201 227.816 41.0401 227.746V227.686C41.0401 227.686 41.0601 227.636 41.0601 227.606C41.0601 227.606 41.0601 227.586 41.0701 227.576C41.5001 227.256 42.9601 227.106 43.2901 227.086C43.9001 227.056 44.9901 227.036 45.4901 227.416C45.5901 227.446 45.6901 227.476 45.7901 227.496C45.6001 227.626 45.4201 227.766 45.2301 227.896L45.2201 227.916Z" fill="#3E6E7B"/>
<path d="M161.21 201.686C159.68 201.376 158.08 201.416 156.58 201.806C156.4 201.856 156.18 201.906 155.95 201.966C156.9 199.646 157.48 197.146 158.19 194.716C158.31 194.306 157.91 193.846 157.48 194.056C155.61 194.966 153.86 196.046 152.24 197.286C152.06 193.446 149.75 189.816 148.12 186.436C147.95 186.086 147.44 186.016 147.22 186.346C145.51 188.846 144.26 191.546 143.48 194.456C143.14 193.916 142.77 193.406 142.36 192.926C141.52 191.946 139.66 189.946 138.21 190.226C136.65 190.526 137.25 193.146 137.3 194.236C137.4 196.276 137.61 198.316 138.03 200.326C135.95 200.466 133.92 200.896 132 201.726C129.98 202.596 129.26 203.186 131.01 204.856C134.85 208.526 139.14 212.136 144.69 212.356C144.69 212.356 144.7 212.366 144.71 212.376C144.78 212.436 144.85 212.466 144.92 212.486C145.06 212.596 145.26 212.626 145.44 212.576C145.73 212.576 146.02 212.476 146.3 212.326C152.54 211.296 158.07 207.916 163.22 204.406C165.38 202.936 162.82 201.996 161.23 201.676L161.21 201.686Z" fill="#FFFFEB"/>
<path d="M161.21 201.686C159.68 201.376 158.08 201.416 156.58 201.806C156.4 201.856 156.18 201.906 155.95 201.966C156.9 199.646 157.48 197.146 158.19 194.716C158.31 194.306 157.91 193.846 157.48 194.056C155.61 194.966 153.86 196.046 152.24 197.286C152.06 193.446 149.75 189.816 148.12 186.436C147.95 186.086 147.44 186.016 147.22 186.346C145.51 188.846 144.26 191.546 143.48 194.456C143.14 193.916 142.77 193.406 142.36 192.926C141.52 191.946 139.66 189.946 138.21 190.226C136.65 190.526 137.25 193.146 137.3 194.236C137.4 196.276 137.61 198.316 138.03 200.326C135.95 200.466 133.92 200.896 132 201.726C129.98 202.596 129.26 203.186 131.01 204.856C134.85 208.526 139.14 212.136 144.69 212.356C144.69 212.356 144.7 212.366 144.71 212.376C144.78 212.436 144.85 212.466 144.92 212.486C145.06 212.596 145.26 212.626 145.44 212.576C145.73 212.576 146.02 212.476 146.3 212.326C152.54 211.296 158.07 207.916 163.22 204.406C165.38 202.936 162.82 201.996 161.23 201.676L161.21 201.686ZM134.06 206.296C133.25 205.586 132.2 204.846 131.57 203.986C131.21 203.496 131.03 203.676 131.43 203.156C131.64 202.876 132.38 202.706 132.69 202.576C134.47 201.846 136.34 201.456 138.26 201.356C138.28 201.426 138.29 201.496 138.31 201.566C138.98 204.176 140.05 206.636 141.55 208.816C139.22 207.596 137.2 205.896 135.58 203.776C135.49 203.656 135.08 203.766 135.18 203.896C136.98 206.246 139.29 208.096 141.94 209.356C142.42 209.996 142.92 210.616 143.48 211.206C139.89 210.686 136.8 208.686 134.07 206.296H134.06ZM145.16 210.716C143.64 206.086 142.23 201.426 140.91 196.736C140.86 196.546 140.43 196.616 140.48 196.796C141.81 201.556 143.25 206.276 144.79 210.976C144.82 211.056 144.92 211.086 145.01 211.086C144.98 211.116 144.94 211.136 144.91 211.176C144.45 210.746 144.03 210.296 143.62 209.826C143.64 209.796 143.63 209.756 143.56 209.726C143.55 209.726 143.53 209.716 143.52 209.706C141.84 207.736 140.61 205.426 139.79 202.956C139.55 202.216 139.35 201.466 139.17 200.716C139.17 200.636 139.15 200.566 139.12 200.506C138.89 199.496 138.72 198.466 138.59 197.436C138.48 196.516 138.39 195.596 138.34 194.666C138.31 194.096 138.29 193.526 138.27 192.946C138.26 192.336 137.99 191.806 138.67 191.626C140.13 191.256 142.13 194.236 142.74 195.276C143.66 196.836 144.23 198.566 144.63 200.326C144.93 201.656 145.21 203.066 145.39 204.496C145.38 204.576 145.39 204.646 145.42 204.726C145.65 206.746 145.65 208.796 145.14 210.696L145.16 210.716ZM146.74 202.446V202.036C146.76 201.496 146.78 200.966 146.81 200.426C146.85 199.606 146.91 198.776 146.98 197.956C147.12 196.316 147.33 194.676 147.59 193.046C147.62 192.826 147.2 192.836 147.17 193.026C146.87 194.926 146.64 196.836 146.5 198.756C146.44 199.596 146.39 200.426 146.36 201.266C146.35 201.656 146.24 202.216 146.27 202.686C145.99 201.086 145.59 199.536 145.15 198.136C144.9 197.336 144.59 196.546 144.22 195.796C144.88 192.886 146 190.206 147.59 187.706C149.23 190.936 151.36 194.476 151.2 198.116C149.58 199.456 148.11 200.966 146.79 202.616C146.79 202.556 146.79 202.506 146.77 202.436L146.74 202.446ZM146.11 211.236C146.28 210.656 146.4 210.056 146.49 209.446C148.96 206.806 151.21 203.976 153.22 200.966C153.35 200.766 152.94 200.706 152.83 200.866C150.95 203.676 148.85 206.316 146.57 208.806C146.71 207.446 146.68 206.036 146.54 204.636C148.07 202.496 149.85 200.586 151.84 198.926C151.98 198.896 152.1 198.806 152.17 198.666C153.63 197.486 155.19 196.446 156.87 195.546C156.24 197.876 155.66 200.326 154.63 202.516C154.45 202.656 154.3 202.836 154.23 203.046C154.2 203.136 154.2 203.226 154.22 203.326C153.95 203.816 153.66 204.296 153.33 204.746C152.29 206.186 151 207.406 149.62 208.526C149.02 209.016 148.39 209.486 147.76 209.936C147.56 210.076 146.73 210.796 146.11 211.226V211.236ZM162.07 203.916C161.68 204.176 161.3 204.426 160.91 204.676C159.86 205.366 158.79 206.036 157.71 206.686C154.75 208.446 151.64 209.956 148.32 210.826C148.36 210.796 148.39 210.766 148.43 210.746C149.32 210.096 150.2 209.426 151.03 208.706C153.42 207.066 155.89 205.576 158.46 204.226C158.65 204.126 158.23 204.116 158.14 204.156C156.09 205.236 154.09 206.416 152.15 207.686C152.48 207.366 152.8 207.036 153.11 206.686C153.94 205.766 154.59 204.756 155.15 203.706C155.24 203.656 155.32 203.566 155.35 203.456C155.35 203.426 155.37 203.396 155.37 203.366C155.38 203.326 155.39 203.286 155.39 203.246C155.39 203.236 155.4 203.216 155.41 203.206C156.11 202.706 158.48 202.536 159.01 202.536C159.99 202.526 161.74 202.536 162.53 203.166C162.69 203.216 162.84 203.266 163 203.316C162.69 203.516 162.38 203.726 162.08 203.926L162.07 203.916Z" fill="#3E6E7B"/>
<path d="M146.92 199.196C145.69 199.386 144.51 199.856 143.49 200.566C143.37 200.656 143.22 200.746 143.06 200.856C143.13 198.866 142.88 196.836 142.74 194.826C142.72 194.486 142.29 194.256 142.03 194.536C140.89 195.726 139.88 197.016 139 198.396C137.81 195.576 135.08 193.496 132.94 191.426C132.72 191.216 132.32 191.306 132.24 191.606C131.65 193.946 131.46 196.306 131.68 198.696C131.28 198.386 130.86 198.106 130.42 197.856C129.52 197.356 127.59 196.376 126.58 196.986C125.5 197.636 126.66 199.436 127 200.226C127.63 201.726 128.35 203.196 129.22 204.576C127.7 205.256 126.31 206.136 125.1 207.286C123.83 208.486 123.46 209.126 125.22 209.896C129.1 211.586 133.3 213.096 137.5 211.736C137.5 211.736 137.51 211.736 137.52 211.736C137.59 211.766 137.65 211.766 137.71 211.766C137.84 211.806 138 211.766 138.12 211.686C138.33 211.596 138.52 211.446 138.7 211.266C143.08 208.776 146.28 204.736 149.16 200.706C150.37 199.016 148.2 199.016 146.92 199.216V199.196Z" fill="#FFFFEB"/>
<path d="M146.92 199.196C145.69 199.386 144.51 199.856 143.49 200.566C143.37 200.656 143.22 200.746 143.06 200.856C143.13 198.866 142.88 196.836 142.74 194.826C142.72 194.486 142.29 194.256 142.03 194.536C140.89 195.726 139.88 197.016 139 198.396C137.81 195.576 135.08 193.496 132.94 191.426C132.72 191.216 132.32 191.306 132.24 191.606C131.65 193.946 131.46 196.306 131.68 198.696C131.28 198.386 130.86 198.106 130.42 197.856C129.52 197.356 127.59 196.376 126.58 196.986C125.5 197.636 126.66 199.436 127 200.226C127.63 201.726 128.35 203.196 129.22 204.576C127.7 205.256 126.31 206.136 125.1 207.286C123.83 208.486 123.46 209.126 125.22 209.896C129.1 211.586 133.3 213.096 137.5 211.736C137.5 211.736 137.51 211.736 137.52 211.736C137.59 211.766 137.65 211.766 137.71 211.766C137.84 211.806 138 211.766 138.12 211.686C138.33 211.596 138.52 211.446 138.7 211.266C143.08 208.776 146.28 204.736 149.16 200.706C150.37 199.016 148.2 199.016 146.92 199.216V199.196ZM127.9 210.106C127.1 209.796 126.12 209.536 125.4 209.066C125 208.796 124.92 208.986 125.07 208.486C125.15 208.216 125.66 207.886 125.85 207.706C126.98 206.676 128.27 205.866 129.67 205.256C129.7 205.306 129.73 205.346 129.76 205.396C130.98 207.156 132.45 208.706 134.18 209.926C132.11 209.656 130.12 208.936 128.33 207.806C128.23 207.746 127.95 207.936 128.06 208.006C130.05 209.266 132.28 210.016 134.61 210.226C135.14 210.576 135.69 210.896 136.27 211.186C133.45 211.786 130.59 211.136 127.89 210.106H127.9ZM137.41 210.366C135 207.326 132.66 204.236 130.39 201.096C130.3 200.966 130 201.136 130.09 201.256C132.39 204.446 134.77 207.576 137.21 210.656C137.25 210.716 137.34 210.706 137.41 210.676C137.39 210.706 137.37 210.736 137.36 210.776C136.9 210.586 136.46 210.356 136.02 210.116C136.02 210.086 136.02 210.056 135.95 210.056C135.94 210.056 135.93 210.056 135.92 210.056C134.12 209.046 132.57 207.656 131.27 206.046C130.89 205.566 130.53 205.056 130.19 204.536C130.17 204.476 130.14 204.426 130.09 204.386C129.64 203.686 129.23 202.976 128.85 202.236C128.51 201.586 128.2 200.916 127.9 200.236C127.72 199.816 127.55 199.396 127.38 198.976C127.2 198.526 126.86 198.196 127.32 197.886C128.31 197.206 130.62 198.886 131.37 199.496C132.49 200.406 133.39 201.546 134.17 202.746C134.76 203.656 135.36 204.636 135.89 205.656C135.9 205.716 135.93 205.776 135.97 205.816C136.7 207.266 137.26 208.796 137.41 210.356V210.366ZM136.32 203.746C136.28 203.646 136.25 203.536 136.21 203.436C136.07 203.036 135.94 202.626 135.81 202.216C135.61 201.586 135.43 200.956 135.26 200.326C134.91 199.056 134.62 197.776 134.36 196.496C134.33 196.326 134.01 196.446 134.04 196.596C134.34 198.096 134.69 199.586 135.11 201.066C135.29 201.706 135.49 202.346 135.7 202.976C135.8 203.276 135.87 203.716 136.03 204.066C135.38 202.956 134.66 201.906 133.94 200.976C133.53 200.446 133.08 199.946 132.6 199.486C132.29 197.136 132.39 194.816 132.89 192.516C135 194.476 137.57 196.536 138.45 199.296C137.61 200.746 136.93 202.276 136.39 203.876C136.37 203.836 136.35 203.796 136.32 203.756V203.746ZM138.26 210.486C138.23 210.006 138.16 209.526 138.05 209.046C139.17 206.396 140.07 203.656 140.75 200.856C140.8 200.666 140.47 200.736 140.43 200.886C139.8 203.506 138.96 206.056 137.94 208.546C137.67 207.496 137.26 206.446 136.77 205.436C137.32 203.416 138.13 201.506 139.16 199.716C139.26 199.656 139.32 199.556 139.33 199.426C140.09 198.146 140.98 196.936 141.98 195.806C142.15 197.726 142.39 199.706 142.23 201.626C142.13 201.786 142.07 201.956 142.08 202.136C142.08 202.206 142.11 202.276 142.14 202.346C142.08 202.786 141.99 203.226 141.87 203.656C141.49 205.016 140.86 206.286 140.14 207.496C139.82 208.026 139.49 208.546 139.14 209.056C139.03 209.216 138.61 209.976 138.26 210.476V210.486ZM148.17 200.626C147.95 200.926 147.73 201.226 147.51 201.516C146.91 202.316 146.3 203.116 145.67 203.896C143.94 206.026 142.04 208.006 139.8 209.576C139.82 209.546 139.84 209.516 139.86 209.486C140.35 208.756 140.82 208.016 141.24 207.246C142.57 205.366 144.01 203.566 145.55 201.856C145.66 201.726 145.35 201.836 145.3 201.896C144.06 203.266 142.9 204.696 141.79 206.176C141.95 205.846 142.1 205.506 142.23 205.166C142.59 204.246 142.81 203.316 142.93 202.376C142.99 202.306 143.02 202.226 143.01 202.136V202.066C143.01 202.066 142.99 201.996 142.98 201.966C142.98 201.956 142.98 201.946 142.98 201.926C143.37 201.356 145.09 200.586 145.48 200.436C146.21 200.156 147.52 199.696 148.28 199.936C148.41 199.936 148.54 199.926 148.67 199.916C148.5 200.156 148.32 200.396 148.15 200.626H148.17Z" fill="#3E6E7B"/>
<path d="M209.18 188.206C208.4 193.516 205.39 198.316 200.94 201.346C200.78 201.306 200.62 201.366 200.51 201.476C199.16 200.926 198.54 199.286 197.74 198.126C197.08 197.166 196.29 196.586 195.23 196.126C195.02 196.036 194.82 195.946 194.61 195.856C200.02 194.506 205 191.876 209.18 188.196V188.206Z" fill="#FFFFEB"/>
<path d="M167.09 190.746C166.89 187.986 166.97 184.446 168.47 181.986C168.69 182.606 168.62 183.776 168.67 184.216C168.74 184.796 168.84 185.376 168.97 185.946C169.27 187.246 169.75 188.536 170.45 189.676C171.63 191.596 173.4 193.056 175.55 193.696C173.85 195.126 172.42 196.826 171.31 198.716C168.57 196.996 167.31 193.876 167.09 190.736V190.746Z" fill="#FFFFEB"/>
<path d="M199.97 209.846C199.39 210.726 198.35 212.436 197.34 212.906C196.29 213.386 195.9 212.356 194.93 212.486C193.1 212.746 193.26 215.286 192.67 216.516C191.58 218.766 189.31 220.576 187.45 222.166C186.82 222.706 184.66 224.996 183.95 224.366C183.88 224.306 183.81 223.776 183.73 223.646C183.6 223.436 183.42 223.266 183.21 223.126C182.15 222.396 180.76 222.806 179.97 223.716C179.41 224.366 179.16 225.196 178.9 225.996C178.56 227.036 178.28 227.226 177.14 227.316C176.45 227.376 175.72 227.286 175.03 227.266C173.66 227.236 172.29 227.246 170.92 227.166C170.14 227.126 168.3 226.706 167.77 225.846C167.81 225.786 167.84 225.716 167.85 225.636C167.89 225.216 167.97 224.796 168.07 224.396C168.07 224.396 168.07 224.396 168.07 224.386C168.18 224.266 168.2 224.126 168.16 224.006C168.79 221.786 170.08 219.766 170.34 217.436C170.68 214.446 169.32 211.516 169.36 208.496C169.43 202.806 172.15 197.356 176.62 193.856C176.75 193.756 176.78 193.636 176.75 193.516C177.79 192.686 179.04 192.196 180.39 192.156C181.78 192.116 182.84 192.686 184.08 193.196C186.27 194.096 188.63 193.116 190.79 193.866C191.93 194.266 192.36 195.456 193.31 196.096C194.49 196.886 195.85 197.066 196.78 198.246C198.04 199.846 198.72 202.086 200.93 202.426C202.82 204.566 201.33 207.736 199.94 209.836L199.97 209.846Z" fill="#FFFFEB"/>
<path d="M210.12 187.166C210.15 186.796 209.66 186.656 209.42 186.876C204.97 191.046 199.51 193.926 193.56 195.266C193.49 195.216 193.42 195.156 193.36 195.096C192.9 194.656 192.62 194.086 192.12 193.686C191.38 193.096 190.45 192.896 189.53 192.846C188.28 192.776 187.02 192.996 185.77 192.826C184.45 192.646 183.36 191.826 182.07 191.526C179.94 191.036 177.76 191.646 176.11 193.016C176.09 193.016 176.07 192.996 176.05 192.996C173.13 192.236 171.1 189.876 170.15 187.086C169.68 185.706 169.46 184.266 169.37 182.816C169.32 182.056 169.35 181.386 168.66 180.946C168.46 180.816 168.23 180.926 168.1 181.096C166.04 183.866 165.95 188.456 166.38 191.736C166.78 194.836 168.22 197.776 170.92 199.456C169.63 201.866 168.83 204.556 168.62 207.316C168.52 208.636 168.56 209.956 168.74 211.266C168.99 213.106 169.66 214.916 169.6 216.786C169.52 219.356 168.07 221.586 167.38 224.016C166.71 224.926 166.88 226.176 167.7 226.996C169.03 228.346 171.5 228.036 173.21 228.076C174.53 228.106 175.85 228.146 177.17 228.166C177.86 228.176 178.59 228.256 179.1 227.696C179.63 227.116 179.7 226.196 179.96 225.496C180.21 224.846 180.53 224.216 181.15 223.856C181.5 223.646 181.77 223.566 182.18 223.636C182.93 223.756 182.93 224.056 183.17 224.776C183.66 226.266 184.86 225.326 185.75 224.646C187.69 223.156 189.55 221.536 191.25 219.786C192.75 218.236 193.55 216.766 194.08 214.696C194.14 214.456 194.21 214.056 194.36 213.866C195.71 212.256 195.35 213.556 195.88 213.796C196.06 213.876 196.2 214.036 196.4 214.086C197.23 214.316 197.93 213.546 198.45 213.036C200.93 210.586 204.49 205.356 201.74 202.076C201.74 202.006 201.71 201.936 201.67 201.876C206.5 198.476 209.61 193.096 210.15 187.196L210.12 187.166ZM167.09 190.746C166.89 187.986 166.97 184.446 168.47 181.986C168.69 182.606 168.62 183.776 168.67 184.216C168.74 184.796 168.84 185.376 168.97 185.946C169.27 187.246 169.75 188.536 170.45 189.676C171.63 191.596 173.4 193.056 175.55 193.696C173.85 195.126 172.42 196.826 171.31 198.716C168.57 196.996 167.31 193.876 167.09 190.736V190.746ZM199.97 209.846C199.39 210.726 198.35 212.436 197.34 212.906C196.29 213.386 195.9 212.356 194.93 212.486C193.1 212.746 193.26 215.286 192.67 216.516C191.58 218.766 189.31 220.576 187.45 222.166C186.82 222.706 184.66 224.996 183.95 224.366C183.88 224.306 183.81 223.776 183.73 223.646C183.6 223.436 183.42 223.266 183.21 223.126C182.15 222.396 180.76 222.806 179.97 223.716C179.41 224.366 179.16 225.196 178.9 225.996C178.7 226.606 178.51 226.926 178.17 227.096C178.12 227.036 177.97 227.006 177.83 227.056C177.4 226.956 176.97 226.866 176.54 226.766C176.53 226.476 176.54 226.186 176.54 225.906C176.52 225.516 176.58 225.876 176.49 225.326C176.46 225.146 175.93 225.276 175.96 225.466C175.96 225.696 175.97 225.916 175.98 226.146C175.24 227.286 174.64 227.436 174.19 226.616C173.73 226.076 173.82 225.946 173.83 225.266C173.83 225.046 173.35 225.166 173.3 225.336C173.1 226.056 172.7 227.476 171.53 227.076C170.54 226.736 171.07 225.726 171.28 225.076C171.35 224.856 170.83 225.036 170.77 225.106C170.56 225.346 170.56 225.636 170.39 225.856C169.42 227.096 168.64 226.946 168.05 225.766C168.02 225.696 167.92 225.676 167.82 225.696C167.82 225.676 167.83 225.666 167.83 225.646C167.87 225.226 167.95 224.806 168.05 224.406C168.05 224.406 168.05 224.406 168.05 224.396C168.16 224.276 168.18 224.136 168.14 224.016C168.77 221.796 170.06 219.776 170.32 217.446C170.66 214.456 169.3 211.526 169.34 208.506C169.41 202.816 172.13 197.366 176.6 193.866C176.73 193.766 176.76 193.646 176.73 193.526C177.77 192.696 179.02 192.206 180.37 192.166C181.76 192.126 182.82 192.696 184.06 193.206C186.25 194.106 188.61 193.126 190.77 193.876C191.91 194.276 192.34 195.466 193.29 196.106C194.47 196.896 195.83 197.076 196.76 198.256C198.02 199.856 198.7 202.096 200.91 202.436C202.8 204.576 201.31 207.746 199.92 209.846H199.97ZM200.94 201.346C200.78 201.306 200.62 201.366 200.51 201.476C199.16 200.926 198.54 199.286 197.74 198.126C197.08 197.166 196.29 196.586 195.23 196.126C195.02 196.036 194.82 195.946 194.61 195.856C200.02 194.506 205 191.876 209.18 188.196C208.4 193.506 205.39 198.306 200.94 201.336V201.346Z" fill="#3E6E7B"/>
<path d="M192.52 204.296C192.37 201.406 190.12 198.996 187.14 198.996C184.16 198.996 181.75 201.446 181.75 204.386C181.75 207.326 184.21 209.786 187.14 209.776C190.12 209.766 192.37 207.376 192.52 204.476C192.52 204.446 192.52 204.426 192.52 204.396C192.52 204.366 192.52 204.336 192.52 204.306V204.296ZM188.23 206.136C188.59 205.526 188.8 204.836 188.86 204.116C188.86 204.016 188.85 203.936 188.8 203.876C188.83 203.746 188.86 203.606 188.89 203.476C188.91 204.506 188.67 205.536 188.13 206.456C188.17 206.356 188.2 206.246 188.23 206.136ZM187.14 199.676C187.34 199.676 187.54 199.696 187.73 199.716C187.68 199.816 187.68 199.946 187.77 200.066C187.79 200.096 187.8 200.126 187.82 200.146C187.77 200.186 187.74 200.236 187.72 200.296C187.53 200.016 187.28 199.796 186.95 199.686C187.01 199.686 187.07 199.686 187.14 199.686V199.676ZM187.35 205.936C187.35 205.936 187.35 205.936 187.36 205.936C187.34 206.006 187.32 206.066 187.29 206.126C187.17 206.296 187.03 206.446 186.88 206.576C187.04 206.366 187.19 206.146 187.34 205.926L187.35 205.936ZM183.44 203.086C183.42 203.156 183.4 203.226 183.38 203.296C183.32 203.366 183.28 203.446 183.27 203.556C183.27 203.566 183.27 203.576 183.27 203.596C183.27 203.596 183.27 203.596 183.27 203.606C183.23 203.606 183.19 203.606 183.15 203.606C183.23 203.416 183.34 203.236 183.46 203.066C183.46 203.066 183.46 203.086 183.45 203.096L183.44 203.086ZM182.86 202.456C183.23 201.646 183.82 200.966 184.55 200.476C183.88 201.076 183.29 201.866 182.86 202.456ZM184.87 201.466C184.87 201.466 184.85 201.466 184.84 201.466C184.92 201.386 185 201.306 185.1 201.226C185.1 201.286 185.11 201.336 185.12 201.396C185.09 201.416 185.05 201.436 185.02 201.456C184.97 201.456 184.93 201.456 184.88 201.456L184.87 201.466ZM185.39 208.346C185.27 208.306 185.15 208.246 185.04 208.176C185.1 208.116 185.13 208.036 185.15 207.946C185.24 207.946 185.34 207.946 185.44 207.926C185.42 208.016 185.41 208.106 185.39 208.186C185.39 208.236 185.39 208.286 185.39 208.336V208.346ZM186.83 209.076C188.05 208.436 189.03 206.716 189.4 205.646C190.07 203.716 189.73 201.636 188.66 199.936C189.15 200.106 189.59 200.356 189.98 200.656C189.98 200.696 189.98 200.736 189.98 200.776C190.8 203.496 190.36 206.326 188.76 208.666C188.73 208.716 188.72 208.756 188.71 208.806C188.22 208.986 187.69 209.086 187.13 209.086C187.02 209.086 186.92 209.086 186.82 209.066L186.83 209.076ZM189.59 208.386C190.85 206.246 191.23 203.766 190.69 201.356C191.38 202.176 191.8 203.246 191.84 204.386C191.78 206.056 190.91 207.546 189.59 208.386Z" fill="#3E6E7B"/>
<path d="M186.51 211.656C182.88 210.756 180.55 207.536 180.78 203.806C180.8 203.556 180.26 203.646 180.25 203.856C180.01 207.736 182.43 211.046 186.2 211.986C186.4 212.036 186.82 211.736 186.51 211.656Z" fill="#3E6E7B"/>
<path d="M190.39 215.936C189.66 216.756 189.14 217.696 188.54 218.606C187.71 219.866 186.66 220.716 185.41 221.546C185.2 221.686 185.72 221.626 185.81 221.556C186.76 220.926 187.7 220.266 188.43 219.376C189.33 218.276 189.91 216.956 190.86 215.896C190.96 215.776 190.47 215.846 190.38 215.936H190.39Z" fill="#3E6E7B"/>
<path d="M193.66 212.086C193.55 212.056 193.37 212.116 193.29 212.186C193.1 212.356 192.9 212.516 192.71 212.686C192.62 212.766 192.66 212.826 192.76 212.856C192.87 212.886 193.05 212.826 193.13 212.756C193.32 212.586 193.52 212.426 193.71 212.256C193.8 212.176 193.76 212.116 193.66 212.086Z" fill="#3E6E7B"/>
<path d="M199.81 208.016C199.46 209.376 198.69 210.536 197.57 211.386C197.34 211.566 197.86 211.556 197.99 211.456C199.16 210.576 199.97 209.356 200.34 207.936C200.39 207.756 199.86 207.836 199.82 208.006L199.81 208.016Z" fill="#3E6E7B"/>
<path d="M176.13 219.816C175.69 218.846 175.51 217.886 175.49 216.826C175.49 216.156 175.67 215.286 175.3 214.676C174.89 214.006 173.97 213.926 173.3 214.206C172.26 214.646 171.94 215.776 171.78 216.796C171.45 218.876 171.01 220.686 169.93 222.466C169.84 222.446 169.73 222.466 169.66 222.506C169 222.916 169.34 223.586 170 223.766C171.45 224.166 172.91 223.346 174.3 223.486C175.18 223.576 176.07 224.506 176.87 223.566C177.79 222.486 176.59 220.826 176.14 219.816H176.13Z" fill="#3E6E7B"/>
<path d="M170.59 195.796C169.18 194.666 168.5 192.926 168.77 191.146C168.79 191.016 168.27 191.106 168.25 191.236C167.97 193.056 168.65 194.816 170.09 195.976C170.2 196.066 170.66 195.856 170.58 195.796H170.59Z" fill="#3E6E7B"/>
<path d="M200.23 199.056C198.89 198.456 198.64 196.336 197.03 196.256C196.91 196.256 196.43 196.476 196.69 196.486C198.15 196.566 198.53 198.716 199.8 199.276C199.92 199.326 200.4 199.136 200.23 199.066V199.056Z" fill="#3E6E7B"/>
<path d="M181 210.156C180.13 208.976 179.6 207.666 179.39 206.226C179.36 206.016 178.83 206.136 178.86 206.366C179.07 207.836 179.63 209.186 180.51 210.376C180.64 210.546 181.14 210.356 180.99 210.156H181Z" fill="#3E6E7B"/>
<path d="M175.44 211.396L175.27 211.226C175.16 211.116 174.66 211.306 174.78 211.416C174.84 211.476 174.9 211.536 174.95 211.586C175.06 211.696 175.56 211.506 175.44 211.396Z" fill="#3E6E7B"/>
<path d="M178.05 219.506C177.37 218.696 177 217.736 176.99 216.676C176.99 216.386 176.45 216.456 176.46 216.706C176.46 217.836 176.84 218.876 177.57 219.736C177.73 219.926 178.23 219.716 178.05 219.496V219.506Z" fill="#3E6E7B"/>
<path d="M175.52 197.176C172.72 200.056 170.86 203.606 170.1 207.546C170.1 207.576 170.6 207.556 170.63 207.406C171.39 203.506 173.23 199.976 176 197.126C176.1 197.026 175.61 197.086 175.53 197.176H175.52Z" fill="#3E6E7B"/>
<path d="M183.54 194.316C182.54 193.626 181.37 193.366 180.16 193.536C180.03 193.556 179.59 193.776 179.93 193.736C181.05 193.586 182.11 193.856 183.04 194.496C183.16 194.576 183.6 194.366 183.54 194.326V194.316Z" fill="#3E6E7B"/>
<path d="M205.84 193.826C205.2 194.626 204.56 195.436 203.92 196.236C203.77 196.426 204.3 196.396 204.41 196.256C205.05 195.456 205.69 194.646 206.33 193.846C206.48 193.656 205.95 193.686 205.84 193.826Z" fill="#3E6E7B"/>
<path d="M200.99 195.326C200.87 195.446 200.76 195.556 200.64 195.676C200.43 195.886 200.94 195.876 201.06 195.756C201.18 195.636 201.29 195.526 201.41 195.406C201.62 195.196 201.11 195.206 200.99 195.326Z" fill="#3E6E7B"/>
</svg>
