<svg width="355" height="69" viewBox="0 0 355 69" fill="none" xmlns="http://www.w3.org/2000/svg">
<path d="M341.552 14.6007C341.23 14.6007 340.907 14.4787 340.661 14.2349C340.16 13.7421 340.155 12.9369 340.645 12.439L346.861 6.13182C347.359 5.62888 348.164 5.62888 348.657 6.11658C349.157 6.60937 349.163 7.4146 348.672 7.91247L342.457 14.2196C342.205 14.4737 341.877 14.5981 341.552 14.5981V14.6007Z" fill="#EBEBEB"/>
<path d="M333.658 11.3976C332.962 11.3976 332.393 10.8337 332.388 10.1377L332.324 1.28023C332.319 0.579147 332.885 0.00508029 333.584 0H333.594C334.29 0 334.859 0.563902 334.864 1.2599L334.928 10.1174C334.933 10.8185 334.366 11.3925 333.668 11.3976H333.658Z" fill="#EBEBEB"/>
<path d="M344.872 22.4498C344.176 22.4498 343.607 21.8859 343.602 21.1899C343.597 20.4888 344.163 19.9148 344.862 19.9097L353.719 19.8462H353.73C354.426 19.8462 354.995 20.4101 355 21.1061C355.005 21.8072 354.438 22.3813 353.74 22.3863L344.882 22.4498H344.872Z" fill="#EBEBEB"/>
<path d="M308.566 66.4502H64.9029C64.2018 66.4502 63.6328 65.8813 63.6328 65.1802C63.6328 64.4791 64.2018 63.9101 64.9029 63.9101H308.566C323.904 63.9101 336.383 51.4304 336.383 36.0905V23.2831C336.383 20.8877 334.432 18.9369 332.037 18.9369H70.3998C69.6987 18.9369 69.1297 18.3679 69.1297 17.6668C69.1297 16.9657 69.6987 16.3967 70.3998 16.3967H332.037C335.835 16.3967 338.923 19.4855 338.923 23.2831V36.0905C338.923 52.8325 325.306 66.4502 308.566 66.4502Z" fill="#EBEBEB"/>
<path d="M54.1022 65.2641L53.8329 28.6632L48.5367 27.8783C48.5367 27.8783 40.2406 22.4398 36.8343 12.6679C36.0875 10.5291 35.4448 3.7139 35.4448 3.7139C35.3203 2.91883 34.6345 2.33205 33.8293 2.33967H33.7327C28.5407 2.37778 24.4587 6.73159 24.6619 11.9186C24.8397 16.4273 25.4316 20.0775 27.8168 25.963L7.6404 26.1103C4.61763 26.1332 1.76251 28.1831 1.33069 31.1754C0.817577 34.724 3.66762 37.6146 7.2543 37.6553C5.69465 38.5748 4.64303 40.2589 4.65573 42.1996C4.67605 45.0979 7.04347 47.4323 9.94431 47.4094H10.0459C8.3364 48.4229 7.2416 50.3535 7.49562 52.5355C7.81568 55.2559 10.3609 57.1763 13.0992 57.156H13.4929C11.8596 58.2152 10.8511 60.1508 11.1534 62.2997C11.5268 64.9593 14.0263 66.8111 16.7113 66.7907L35.8055 66.651L54.1022 65.2616V65.2641Z" fill="white"/>
<path d="M16.6757 68.0658C13.2542 68.0658 10.3457 65.6729 9.89865 62.48C9.67511 60.8975 10.0231 59.3531 10.836 58.0728C8.39996 57.2702 6.53042 55.1923 6.23322 52.6877C6.04271 51.0417 6.46183 49.4541 7.37374 48.1739C6.61424 47.8564 5.9284 47.3966 5.32893 46.8098C4.08934 45.588 3.39841 43.9547 3.38571 42.2147C3.37555 40.8456 3.80738 39.5273 4.57958 38.435C3.43398 38.0032 2.4103 37.2995 1.61778 36.3724C0.337544 34.8737 -0.211123 32.9661 0.0733727 31.0025C0.576321 27.52 3.82516 24.8732 7.63283 24.8452L25.9676 24.7106C24.0498 19.5693 23.557 16.0589 23.3944 11.9718C23.2801 9.0938 24.3089 6.36568 26.2902 4.29038C28.2486 2.2354 30.8904 1.09488 33.7252 1.07202H33.7531C35.2594 1.07202 36.4838 2.1211 36.7022 3.52072C36.8851 5.45123 37.4668 10.6204 38.0358 12.2537C40.957 20.6413 47.7188 25.747 49.0169 26.6665L54.0209 27.4108C54.6407 27.5022 55.1005 28.0306 55.1056 28.6554L55.3723 65.2564C55.3774 65.9244 54.8643 66.4807 54.1988 66.5341L35.9021 67.9235L16.7215 68.0683H16.6732L16.6757 68.0658ZM13.4955 55.8858C14.0569 55.8858 14.5497 56.2541 14.7122 56.7901C14.8748 57.3311 14.6614 57.9103 14.1889 58.2176C12.8757 59.0737 12.1975 60.5698 12.4159 62.1244C12.6826 64.0346 14.5522 65.5231 16.6783 65.5231H16.7088L35.8005 65.3808L52.8296 64.0854L52.5756 29.7553L48.3564 29.1279C48.1735 29.1025 47.9983 29.0365 47.8458 28.9349C47.4928 28.7037 39.1484 23.1459 35.6405 13.0844C34.8657 10.8643 34.251 4.54441 34.185 3.82809C34.1672 3.72902 34.0224 3.60455 33.8471 3.60455C31.6067 3.62233 29.6127 4.48597 28.1343 6.03546C26.6331 7.6078 25.8558 9.68056 25.9422 11.8651C26.1098 16.2164 26.6483 19.6735 29.0031 25.4828C29.1606 25.8714 29.1174 26.3134 28.8837 26.6665C28.6474 27.017 28.2563 27.2279 27.8371 27.2304L7.66078 27.3777C5.09777 27.3981 2.92087 29.1076 2.59828 31.3556C2.42047 32.5876 2.7583 33.7789 3.55845 34.7111C4.45258 35.7577 5.80902 36.3648 7.27976 36.3826C7.85129 36.3902 8.34662 36.7737 8.49395 37.325C8.64128 37.8762 8.4025 38.4553 7.91225 38.7474C6.66758 39.4815 5.93094 40.7694 5.9411 42.1893C5.94872 43.2536 6.37039 44.2494 7.12735 44.9936C7.88685 45.7379 8.94355 46.1062 9.94691 46.1367H9.95707C10.5286 46.1367 11.0773 46.5152 11.2322 47.0664C11.3872 47.6176 11.1992 48.2044 10.7064 48.4965C9.32711 49.3144 8.58539 50.8055 8.77082 52.3804C9.00197 54.349 10.8868 55.8807 13.0713 55.8807H13.498C13.498 55.8807 13.5031 55.8807 13.5057 55.8807L13.4955 55.8858Z" fill="#EBEBEB"/>
<path d="M53.8328 28.6632L54.102 65.2641L66.3074 65.1752C68.5834 65.1574 70.4148 63.3006 70.3996 61.0246L70.1913 32.6665C70.1735 30.3905 68.3167 28.5591 66.0407 28.5743L53.8353 28.6632H53.8328Z" fill="#E8E8E8"/>
<path d="M52.8422 66.5443L52.5552 27.4033L66.0306 27.3042H66.0738C67.5014 27.3042 68.84 27.8529 69.8561 28.8537C70.8798 29.8621 71.4538 31.2135 71.464 32.6537L71.6723 61.0119C71.6825 62.4522 71.1312 63.8111 70.1203 64.8374C69.1093 65.861 67.7579 66.4326 66.3177 66.4427L52.8448 66.5443H52.8422ZM55.1131 29.9231L55.362 63.9839L66.2973 63.9026C67.0619 63.8975 67.7732 63.5952 68.3091 63.0542C68.8426 62.5106 69.1347 61.7917 69.1296 61.0297L68.9213 32.6741C68.9162 31.912 68.614 31.1982 68.0704 30.6623C67.5344 30.1339 66.8257 29.8443 66.0713 29.8443H66.0484L55.1131 29.9231Z" fill="#C8CBCC"/>
<path d="M58.5323 58.3065C58.5425 59.7264 59.7008 60.867 61.1207 60.8568C62.5406 60.8466 63.6812 59.6883 63.671 58.2684C63.6608 56.8484 62.5025 55.7079 61.0826 55.7181C59.6627 55.7282 58.5221 56.8866 58.5323 58.3065Z" fill="#C8CBCC"/>
<path d="M107.928 45V42.444L105.156 37.08H106.44L108.456 41.364H108.516L110.52 37.08H111.804L109.032 42.432V45H107.928ZM114.87 45.156C114.278 45.156 113.754 45.028 113.298 44.772C112.85 44.508 112.498 44.132 112.242 43.644C111.994 43.156 111.87 42.564 111.87 41.868C111.87 41.148 112.002 40.552 112.266 40.08C112.538 39.6 112.898 39.24 113.346 39C113.794 38.76 114.294 38.64 114.846 38.64C115.422 38.64 115.934 38.768 116.382 39.024C116.838 39.272 117.198 39.64 117.462 40.128C117.726 40.608 117.858 41.204 117.858 41.916C117.858 42.628 117.726 43.224 117.462 43.704C117.206 44.184 116.85 44.548 116.394 44.796C115.946 45.036 115.438 45.156 114.87 45.156ZM114.918 44.256C115.302 44.256 115.63 44.164 115.902 43.98C116.182 43.788 116.394 43.52 116.538 43.176C116.69 42.832 116.766 42.424 116.766 41.952C116.766 41.464 116.686 41.044 116.526 40.692C116.374 40.332 116.154 40.056 115.866 39.864C115.578 39.664 115.23 39.564 114.822 39.564C114.454 39.564 114.13 39.652 113.85 39.828C113.57 40.004 113.354 40.264 113.202 40.608C113.05 40.944 112.974 41.356 112.974 41.844C112.974 42.596 113.146 43.188 113.49 43.62C113.842 44.044 114.318 44.256 114.918 44.256ZM121.405 45.156C120.717 45.156 120.197 44.916 119.845 44.436C119.493 43.956 119.317 43.24 119.317 42.288V38.796H120.421V42.192C120.421 42.864 120.525 43.364 120.733 43.692C120.941 44.02 121.269 44.184 121.717 44.184C121.965 44.184 122.185 44.124 122.377 44.004C122.577 43.884 122.753 43.712 122.905 43.488C123.057 43.264 123.181 43 123.277 42.696C123.373 42.384 123.437 42.048 123.469 41.688V38.796H124.561V42.408V45H123.589L123.685 43.008H123.505C123.401 43.504 123.253 43.912 123.061 44.232C122.877 44.544 122.645 44.776 122.365 44.928C122.085 45.08 121.765 45.156 121.405 45.156ZM134.831 45V37.08H135.935V45H134.831ZM129.575 45V37.08H130.679V45H129.575ZM130.127 41.424V40.476H135.275V41.424H130.127ZM139.321 45.156C138.985 45.156 138.681 45.092 138.409 44.964C138.137 44.828 137.921 44.632 137.761 44.376C137.601 44.112 137.521 43.78 137.521 43.38C137.521 43.084 137.573 42.824 137.677 42.6C137.789 42.376 137.957 42.184 138.181 42.024C138.413 41.864 138.709 41.732 139.069 41.628C139.429 41.524 139.869 41.436 140.389 41.364C140.685 41.324 140.925 41.284 141.109 41.244C141.301 41.204 141.441 41.14 141.529 41.052C141.617 40.956 141.661 40.816 141.661 40.632C141.661 40.328 141.557 40.072 141.349 39.864C141.141 39.656 140.813 39.552 140.365 39.552C140.133 39.552 139.897 39.592 139.657 39.672C139.417 39.752 139.205 39.888 139.021 40.08C138.845 40.264 138.733 40.524 138.685 40.86L137.677 40.524C137.741 40.236 137.845 39.976 137.989 39.744C138.141 39.512 138.333 39.316 138.565 39.156C138.797 38.988 139.065 38.86 139.369 38.772C139.681 38.684 140.025 38.64 140.401 38.64C140.921 38.64 141.353 38.728 141.697 38.904C142.049 39.08 142.309 39.352 142.477 39.72C142.653 40.08 142.741 40.544 142.741 41.112V42.492C142.741 42.74 142.745 43.012 142.753 43.308C142.769 43.596 142.789 43.888 142.813 44.184C142.837 44.472 142.861 44.744 142.885 45H141.877C141.853 44.744 141.829 44.488 141.805 44.232C141.789 43.976 141.777 43.72 141.769 43.464H141.613C141.493 43.76 141.333 44.036 141.133 44.292C140.933 44.548 140.681 44.756 140.377 44.916C140.081 45.076 139.729 45.156 139.321 45.156ZM139.645 44.268C139.821 44.268 139.997 44.24 140.173 44.184C140.357 44.128 140.537 44.036 140.713 43.908C140.897 43.78 141.069 43.616 141.229 43.416C141.397 43.216 141.545 42.976 141.673 42.696V41.496L141.985 41.556C141.857 41.684 141.685 41.78 141.469 41.844C141.261 41.908 141.029 41.96 140.773 42C140.517 42.04 140.261 42.084 140.005 42.132C139.749 42.172 139.513 42.236 139.297 42.324C139.089 42.404 138.921 42.52 138.793 42.672C138.665 42.824 138.601 43.032 138.601 43.296C138.601 43.616 138.697 43.86 138.889 44.028C139.081 44.188 139.333 44.268 139.645 44.268ZM145.921 45L143.701 38.808H144.913L146.605 44.076H146.773L148.453 38.808H149.641L147.433 45H145.921ZM153.354 45.156C152.866 45.156 152.434 45.084 152.058 44.94C151.69 44.788 151.378 44.572 151.122 44.292C150.866 44.012 150.674 43.68 150.546 43.296C150.418 42.912 150.354 42.48 150.354 42C150.354 41.512 150.418 41.064 150.546 40.656C150.674 40.248 150.862 39.892 151.11 39.588C151.358 39.284 151.662 39.052 152.022 38.892C152.382 38.724 152.794 38.64 153.258 38.64C153.666 38.64 154.038 38.708 154.374 38.844C154.71 38.98 154.994 39.192 155.226 39.48C155.466 39.76 155.646 40.116 155.766 40.548C155.886 40.972 155.934 41.472 155.91 42.048L151.038 42.084V41.34L155.25 41.304L154.878 41.808C154.918 41.304 154.87 40.888 154.734 40.56C154.598 40.232 154.402 39.984 154.146 39.816C153.898 39.648 153.602 39.564 153.258 39.564C152.89 39.564 152.566 39.66 152.286 39.852C152.006 40.044 151.79 40.32 151.638 40.68C151.494 41.04 151.422 41.476 151.422 41.988C151.422 42.724 151.586 43.288 151.914 43.68C152.242 44.064 152.73 44.256 153.378 44.256C153.626 44.256 153.842 44.228 154.026 44.172C154.218 44.108 154.378 44.024 154.506 43.92C154.642 43.808 154.75 43.68 154.83 43.536C154.918 43.392 154.986 43.236 155.034 43.068L155.994 43.296C155.922 43.584 155.81 43.844 155.658 44.076C155.514 44.3 155.33 44.492 155.106 44.652C154.89 44.812 154.638 44.936 154.35 45.024C154.062 45.112 153.73 45.156 153.354 45.156ZM157.548 45V37.08H159.012L163.188 43.548H163.284L163.2 37.08H164.268V45H162.936L158.652 38.388H158.544L158.628 45H157.548ZM168.917 45.156C168.325 45.156 167.801 45.028 167.345 44.772C166.897 44.508 166.545 44.132 166.289 43.644C166.041 43.156 165.917 42.564 165.917 41.868C165.917 41.148 166.049 40.552 166.313 40.08C166.585 39.6 166.945 39.24 167.393 39C167.841 38.76 168.341 38.64 168.893 38.64C169.469 38.64 169.981 38.768 170.429 39.024C170.885 39.272 171.245 39.64 171.509 40.128C171.773 40.608 171.905 41.204 171.905 41.916C171.905 42.628 171.773 43.224 171.509 43.704C171.253 44.184 170.897 44.548 170.441 44.796C169.993 45.036 169.485 45.156 168.917 45.156ZM168.965 44.256C169.349 44.256 169.677 44.164 169.949 43.98C170.229 43.788 170.441 43.52 170.585 43.176C170.737 42.832 170.813 42.424 170.813 41.952C170.813 41.464 170.733 41.044 170.573 40.692C170.421 40.332 170.201 40.056 169.913 39.864C169.625 39.664 169.277 39.564 168.869 39.564C168.501 39.564 168.177 39.652 167.897 39.828C167.617 40.004 167.401 40.264 167.249 40.608C167.097 40.944 167.021 41.356 167.021 41.844C167.021 42.596 167.193 43.188 167.537 43.62C167.889 44.044 168.365 44.256 168.965 44.256ZM176.579 45V37.08H179.339C179.739 37.08 180.103 37.112 180.431 37.176C180.767 37.24 181.063 37.336 181.319 37.464C181.583 37.592 181.803 37.748 181.979 37.932C182.163 38.116 182.299 38.332 182.387 38.58C182.483 38.82 182.531 39.088 182.531 39.384C182.531 39.664 182.487 39.92 182.399 40.152C182.319 40.384 182.195 40.588 182.027 40.764C181.859 40.94 181.651 41.084 181.403 41.196C181.155 41.3 180.867 41.372 180.539 41.412V41.568C180.827 41.6 181.079 41.676 181.295 41.796C181.511 41.916 181.695 42.092 181.847 42.324C181.999 42.548 182.131 42.848 182.243 43.224L182.747 45H181.559L181.151 43.38C181.079 43.052 180.955 42.788 180.779 42.588C180.611 42.388 180.399 42.24 180.143 42.144C179.887 42.048 179.587 42 179.243 42H177.683V45H176.579ZM177.683 41.1H179.243C179.955 41.1 180.491 40.972 180.851 40.716C181.219 40.46 181.403 40.068 181.403 39.54C181.403 39.012 181.227 38.624 180.875 38.376C180.531 38.12 179.995 37.992 179.267 37.992H177.683V41.1ZM186.928 45.156C186.44 45.156 186.008 45.084 185.632 44.94C185.264 44.788 184.952 44.572 184.696 44.292C184.44 44.012 184.248 43.68 184.12 43.296C183.992 42.912 183.928 42.48 183.928 42C183.928 41.512 183.992 41.064 184.12 40.656C184.248 40.248 184.436 39.892 184.684 39.588C184.932 39.284 185.236 39.052 185.596 38.892C185.956 38.724 186.368 38.64 186.832 38.64C187.24 38.64 187.612 38.708 187.948 38.844C188.284 38.98 188.568 39.192 188.8 39.48C189.04 39.76 189.22 40.116 189.34 40.548C189.46 40.972 189.508 41.472 189.484 42.048L184.612 42.084V41.34L188.824 41.304L188.452 41.808C188.492 41.304 188.444 40.888 188.308 40.56C188.172 40.232 187.976 39.984 187.72 39.816C187.472 39.648 187.176 39.564 186.832 39.564C186.464 39.564 186.14 39.66 185.86 39.852C185.58 40.044 185.364 40.32 185.212 40.68C185.068 41.04 184.996 41.476 184.996 41.988C184.996 42.724 185.16 43.288 185.488 43.68C185.816 44.064 186.304 44.256 186.952 44.256C187.2 44.256 187.416 44.228 187.6 44.172C187.792 44.108 187.952 44.024 188.08 43.92C188.216 43.808 188.324 43.68 188.404 43.536C188.492 43.392 188.56 43.236 188.608 43.068L189.568 43.296C189.496 43.584 189.384 43.844 189.232 44.076C189.088 44.3 188.904 44.492 188.68 44.652C188.464 44.812 188.212 44.936 187.924 45.024C187.636 45.112 187.304 45.156 186.928 45.156ZM193.725 45.156C193.181 45.156 192.717 45.068 192.333 44.892C191.957 44.716 191.649 44.48 191.409 44.184C191.177 43.888 191.005 43.548 190.893 43.164C190.789 42.78 190.737 42.38 190.737 41.964C190.737 41.508 190.797 41.08 190.917 40.68C191.037 40.28 191.217 39.928 191.457 39.624C191.705 39.312 192.009 39.072 192.369 38.904C192.737 38.728 193.165 38.64 193.653 38.64C194.125 38.64 194.541 38.724 194.901 38.892C195.261 39.052 195.553 39.28 195.777 39.576C196.009 39.872 196.157 40.224 196.221 40.632L195.177 40.92C195.161 40.696 195.093 40.48 194.973 40.272C194.861 40.064 194.693 39.896 194.469 39.768C194.245 39.632 193.969 39.564 193.641 39.564C193.329 39.564 193.061 39.624 192.837 39.744C192.621 39.864 192.437 40.032 192.285 40.248C192.141 40.464 192.029 40.716 191.949 41.004C191.877 41.292 191.841 41.604 191.841 41.94C191.841 42.404 191.905 42.808 192.033 43.152C192.169 43.496 192.377 43.764 192.657 43.956C192.937 44.148 193.297 44.244 193.737 44.244C194.065 44.244 194.345 44.188 194.577 44.076C194.809 43.956 194.993 43.792 195.129 43.584C195.265 43.368 195.353 43.116 195.393 42.828L196.401 43.056C196.345 43.4 196.241 43.704 196.089 43.968C195.937 44.232 195.745 44.452 195.513 44.628C195.281 44.796 195.013 44.924 194.709 45.012C194.413 45.108 194.085 45.156 193.725 45.156ZM200.311 45.156C199.719 45.156 199.195 45.028 198.739 44.772C198.291 44.508 197.939 44.132 197.683 43.644C197.435 43.156 197.311 42.564 197.311 41.868C197.311 41.148 197.443 40.552 197.707 40.08C197.979 39.6 198.339 39.24 198.787 39C199.235 38.76 199.735 38.64 200.287 38.64C200.863 38.64 201.375 38.768 201.823 39.024C202.279 39.272 202.639 39.64 202.903 40.128C203.167 40.608 203.299 41.204 203.299 41.916C203.299 42.628 203.167 43.224 202.903 43.704C202.647 44.184 202.291 44.548 201.835 44.796C201.387 45.036 200.879 45.156 200.311 45.156ZM200.359 44.256C200.743 44.256 201.071 44.164 201.343 43.98C201.623 43.788 201.835 43.52 201.979 43.176C202.131 42.832 202.207 42.424 202.207 41.952C202.207 41.464 202.127 41.044 201.967 40.692C201.815 40.332 201.595 40.056 201.307 39.864C201.019 39.664 200.671 39.564 200.263 39.564C199.895 39.564 199.571 39.652 199.291 39.828C199.011 40.004 198.795 40.264 198.643 40.608C198.491 40.944 198.415 41.356 198.415 41.844C198.415 42.596 198.587 43.188 198.931 43.62C199.283 44.044 199.759 44.256 200.359 44.256ZM204.854 45V41.16V38.796H205.826L205.718 40.764H205.922C206.026 40.292 206.166 39.9 206.342 39.588C206.518 39.268 206.734 39.032 206.99 38.88C207.254 38.72 207.554 38.64 207.89 38.64C208.29 38.64 208.618 38.74 208.874 38.94C209.13 39.132 209.318 39.384 209.438 39.696C209.566 40.008 209.63 40.352 209.63 40.728H209.822C209.91 40.28 210.046 39.9 210.23 39.588C210.414 39.276 210.642 39.04 210.914 38.88C211.186 38.72 211.498 38.64 211.85 38.64C212.17 38.64 212.45 38.704 212.69 38.832C212.93 38.96 213.134 39.152 213.302 39.408C213.47 39.656 213.594 39.964 213.674 40.332C213.754 40.7 213.794 41.124 213.794 41.604V45H212.702V41.748C212.702 41.276 212.658 40.884 212.57 40.572C212.482 40.252 212.35 40.016 212.174 39.864C212.006 39.704 211.79 39.624 211.526 39.624C211.23 39.624 210.962 39.728 210.722 39.936C210.49 40.136 210.298 40.42 210.146 40.788C210.002 41.148 209.906 41.56 209.858 42.024V45H208.79V41.856C208.79 41.36 208.746 40.948 208.658 40.62C208.57 40.292 208.438 40.044 208.262 39.876C208.094 39.708 207.874 39.624 207.602 39.624C207.282 39.624 207.006 39.736 206.774 39.96C206.542 40.176 206.354 40.468 206.21 40.836C206.074 41.204 205.986 41.616 205.946 42.072V45H204.854ZM215.589 45V41.16V38.796H216.561L216.453 40.764H216.657C216.761 40.292 216.901 39.9 217.077 39.588C217.253 39.268 217.469 39.032 217.725 38.88C217.989 38.72 218.289 38.64 218.625 38.64C219.025 38.64 219.353 38.74 219.609 38.94C219.865 39.132 220.053 39.384 220.173 39.696C220.301 40.008 220.365 40.352 220.365 40.728H220.557C220.645 40.28 220.781 39.9 220.965 39.588C221.149 39.276 221.377 39.04 221.649 38.88C221.921 38.72 222.233 38.64 222.585 38.64C222.905 38.64 223.185 38.704 223.425 38.832C223.665 38.96 223.869 39.152 224.037 39.408C224.205 39.656 224.329 39.964 224.409 40.332C224.489 40.7 224.529 41.124 224.529 41.604V45H223.437V41.748C223.437 41.276 223.393 40.884 223.305 40.572C223.217 40.252 223.085 40.016 222.909 39.864C222.741 39.704 222.525 39.624 222.261 39.624C221.965 39.624 221.697 39.728 221.457 39.936C221.225 40.136 221.033 40.42 220.881 40.788C220.737 41.148 220.641 41.56 220.593 42.024V45H219.525V41.856C219.525 41.36 219.481 40.948 219.393 40.62C219.305 40.292 219.173 40.044 218.997 39.876C218.829 39.708 218.609 39.624 218.337 39.624C218.017 39.624 217.741 39.736 217.509 39.96C217.277 40.176 217.089 40.468 216.945 40.836C216.809 41.204 216.721 41.616 216.681 42.072V45H215.589ZM228.987 45.156C228.499 45.156 228.067 45.084 227.691 44.94C227.323 44.788 227.011 44.572 226.755 44.292C226.499 44.012 226.307 43.68 226.179 43.296C226.051 42.912 225.987 42.48 225.987 42C225.987 41.512 226.051 41.064 226.179 40.656C226.307 40.248 226.495 39.892 226.743 39.588C226.991 39.284 227.295 39.052 227.655 38.892C228.015 38.724 228.427 38.64 228.891 38.64C229.299 38.64 229.671 38.708 230.007 38.844C230.343 38.98 230.627 39.192 230.859 39.48C231.099 39.76 231.279 40.116 231.399 40.548C231.519 40.972 231.567 41.472 231.543 42.048L226.671 42.084V41.34L230.883 41.304L230.511 41.808C230.551 41.304 230.503 40.888 230.367 40.56C230.231 40.232 230.035 39.984 229.779 39.816C229.531 39.648 229.235 39.564 228.891 39.564C228.523 39.564 228.199 39.66 227.919 39.852C227.639 40.044 227.423 40.32 227.271 40.68C227.127 41.04 227.055 41.476 227.055 41.988C227.055 42.724 227.219 43.288 227.547 43.68C227.875 44.064 228.363 44.256 229.011 44.256C229.259 44.256 229.475 44.228 229.659 44.172C229.851 44.108 230.011 44.024 230.139 43.92C230.275 43.808 230.383 43.68 230.463 43.536C230.551 43.392 230.619 43.236 230.667 43.068L231.627 43.296C231.555 43.584 231.443 43.844 231.291 44.076C231.147 44.3 230.963 44.492 230.739 44.652C230.523 44.812 230.271 44.936 229.983 45.024C229.695 45.112 229.363 45.156 228.987 45.156ZM233.096 45V41.148V38.796H234.08L233.972 40.764H234.176C234.288 40.276 234.436 39.876 234.62 39.564C234.812 39.252 235.052 39.02 235.34 38.868C235.628 38.716 235.964 38.64 236.348 38.64C237.036 38.64 237.556 38.888 237.908 39.384C238.268 39.872 238.448 40.604 238.448 41.58V45H237.344V41.676C237.344 40.972 237.232 40.452 237.008 40.116C236.792 39.78 236.472 39.612 236.048 39.612C235.664 39.612 235.336 39.732 235.064 39.972C234.8 40.212 234.592 40.528 234.44 40.92C234.288 41.312 234.204 41.736 234.188 42.192V45H233.096ZM242.452 45.156C241.924 45.156 241.472 45.016 241.096 44.736C240.72 44.456 240.432 44.072 240.232 43.584C240.04 43.096 239.944 42.536 239.944 41.904C239.944 41.272 240.04 40.712 240.232 40.224C240.424 39.736 240.704 39.352 241.072 39.072C241.44 38.792 241.892 38.652 242.428 38.652C242.868 38.652 243.228 38.744 243.508 38.928C243.788 39.112 244.012 39.352 244.18 39.648C244.356 39.936 244.484 40.252 244.564 40.596H244.78C244.74 40.364 244.704 40.124 244.672 39.876C244.64 39.62 244.612 39.372 244.588 39.132C244.564 38.884 244.552 38.664 244.552 38.472V36.6H245.656V41.94V45H244.672L244.732 43.32H244.54C244.444 43.68 244.308 44 244.132 44.28C243.956 44.552 243.732 44.768 243.46 44.928C243.188 45.08 242.852 45.156 242.452 45.156ZM242.704 44.196C242.992 44.196 243.252 44.128 243.484 43.992C243.716 43.856 243.912 43.68 244.072 43.464C244.232 43.24 244.352 43 244.432 42.744C244.52 42.488 244.564 42.24 244.564 42V41.856C244.564 41.688 244.54 41.508 244.492 41.316C244.444 41.116 244.372 40.916 244.276 40.716C244.188 40.516 244.068 40.332 243.916 40.164C243.772 39.988 243.6 39.852 243.4 39.756C243.2 39.652 242.976 39.6 242.728 39.6C242.368 39.6 242.064 39.704 241.816 39.912C241.576 40.112 241.392 40.388 241.264 40.74C241.144 41.092 241.084 41.488 241.084 41.928C241.084 42.384 241.148 42.784 241.276 43.128C241.404 43.464 241.588 43.728 241.828 43.92C242.076 44.104 242.368 44.196 242.704 44.196ZM248.985 45.156C248.649 45.156 248.345 45.092 248.073 44.964C247.801 44.828 247.585 44.632 247.425 44.376C247.265 44.112 247.185 43.78 247.185 43.38C247.185 43.084 247.237 42.824 247.341 42.6C247.453 42.376 247.621 42.184 247.845 42.024C248.077 41.864 248.373 41.732 248.733 41.628C249.093 41.524 249.533 41.436 250.053 41.364C250.349 41.324 250.589 41.284 250.773 41.244C250.965 41.204 251.105 41.14 251.193 41.052C251.281 40.956 251.325 40.816 251.325 40.632C251.325 40.328 251.221 40.072 251.013 39.864C250.805 39.656 250.477 39.552 250.029 39.552C249.797 39.552 249.561 39.592 249.321 39.672C249.081 39.752 248.869 39.888 248.685 40.08C248.509 40.264 248.397 40.524 248.349 40.86L247.341 40.524C247.405 40.236 247.509 39.976 247.653 39.744C247.805 39.512 247.997 39.316 248.229 39.156C248.461 38.988 248.729 38.86 249.033 38.772C249.345 38.684 249.689 38.64 250.065 38.64C250.585 38.64 251.017 38.728 251.361 38.904C251.713 39.08 251.973 39.352 252.141 39.72C252.317 40.08 252.405 40.544 252.405 41.112V42.492C252.405 42.74 252.409 43.012 252.417 43.308C252.433 43.596 252.453 43.888 252.477 44.184C252.501 44.472 252.525 44.744 252.549 45H251.541C251.517 44.744 251.493 44.488 251.469 44.232C251.453 43.976 251.441 43.72 251.433 43.464H251.277C251.157 43.76 250.997 44.036 250.797 44.292C250.597 44.548 250.345 44.756 250.041 44.916C249.745 45.076 249.393 45.156 248.985 45.156ZM249.309 44.268C249.485 44.268 249.661 44.24 249.837 44.184C250.021 44.128 250.201 44.036 250.377 43.908C250.561 43.78 250.733 43.616 250.893 43.416C251.061 43.216 251.209 42.976 251.337 42.696V41.496L251.649 41.556C251.521 41.684 251.349 41.78 251.133 41.844C250.925 41.908 250.693 41.96 250.437 42C250.181 42.04 249.925 42.084 249.669 42.132C249.413 42.172 249.177 42.236 248.961 42.324C248.753 42.404 248.585 42.52 248.457 42.672C248.329 42.824 248.265 43.032 248.265 43.296C248.265 43.616 248.361 43.86 248.553 44.028C248.745 44.188 248.997 44.268 249.309 44.268ZM256.169 45.12C255.593 45.12 255.165 44.964 254.885 44.652C254.605 44.34 254.465 43.864 254.465 43.224V39.708H253.529L253.541 38.796H254.129C254.329 38.796 254.473 38.76 254.561 38.688C254.657 38.616 254.713 38.496 254.729 38.328L254.849 37.392H255.521V38.796H257.309V39.72H255.521V43.2C255.521 43.52 255.593 43.752 255.737 43.896C255.889 44.032 256.105 44.1 256.385 44.1C256.537 44.1 256.693 44.08 256.853 44.04C257.021 44 257.185 43.92 257.345 43.8V44.892C257.113 44.98 256.897 45.04 256.697 45.072C256.505 45.104 256.329 45.12 256.169 45.12ZM258.702 45V38.796H259.794V45H258.702ZM259.254 37.716C258.998 37.716 258.806 37.664 258.678 37.56C258.55 37.456 258.486 37.3 258.486 37.092C258.486 36.884 258.55 36.728 258.678 36.624C258.806 36.52 258.994 36.468 259.242 36.468C259.498 36.468 259.69 36.52 259.818 36.624C259.946 36.728 260.01 36.884 260.01 37.092C260.01 37.292 259.946 37.448 259.818 37.56C259.69 37.664 259.502 37.716 259.254 37.716ZM264.354 45.156C263.762 45.156 263.238 45.028 262.782 44.772C262.334 44.508 261.982 44.132 261.726 43.644C261.478 43.156 261.354 42.564 261.354 41.868C261.354 41.148 261.486 40.552 261.75 40.08C262.022 39.6 262.382 39.24 262.83 39C263.278 38.76 263.778 38.64 264.33 38.64C264.906 38.64 265.418 38.768 265.866 39.024C266.322 39.272 266.682 39.64 266.946 40.128C267.21 40.608 267.342 41.204 267.342 41.916C267.342 42.628 267.21 43.224 266.946 43.704C266.69 44.184 266.334 44.548 265.878 44.796C265.43 45.036 264.922 45.156 264.354 45.156ZM264.402 44.256C264.786 44.256 265.114 44.164 265.386 43.98C265.666 43.788 265.878 43.52 266.022 43.176C266.174 42.832 266.25 42.424 266.25 41.952C266.25 41.464 266.17 41.044 266.01 40.692C265.858 40.332 265.638 40.056 265.35 39.864C265.062 39.664 264.714 39.564 264.306 39.564C263.938 39.564 263.614 39.652 263.334 39.828C263.054 40.004 262.838 40.264 262.686 40.608C262.534 40.944 262.458 41.356 262.458 41.844C262.458 42.596 262.63 43.188 262.974 43.62C263.326 44.044 263.802 44.256 264.402 44.256ZM268.897 45V41.148V38.796H269.881L269.773 40.764H269.977C270.089 40.276 270.237 39.876 270.421 39.564C270.613 39.252 270.853 39.02 271.141 38.868C271.429 38.716 271.765 38.64 272.149 38.64C272.837 38.64 273.357 38.888 273.709 39.384C274.069 39.872 274.249 40.604 274.249 41.58V45H273.145V41.676C273.145 40.972 273.033 40.452 272.809 40.116C272.593 39.78 272.273 39.612 271.849 39.612C271.465 39.612 271.137 39.732 270.865 39.972C270.601 40.212 270.393 40.528 270.241 40.92C270.089 41.312 270.005 41.736 269.989 42.192V45H268.897ZM278.35 45.156C277.918 45.156 277.534 45.108 277.198 45.012C276.862 44.924 276.582 44.796 276.358 44.628C276.134 44.452 275.962 44.244 275.842 44.004C275.722 43.764 275.658 43.5 275.65 43.212L276.574 42.972C276.558 43.236 276.622 43.468 276.766 43.668C276.918 43.86 277.13 44.008 277.402 44.112C277.682 44.216 278.018 44.268 278.41 44.268C278.882 44.268 279.246 44.188 279.502 44.028C279.766 43.868 279.898 43.648 279.898 43.368C279.898 43.144 279.826 42.972 279.682 42.852C279.538 42.724 279.338 42.624 279.082 42.552C278.834 42.472 278.538 42.4 278.194 42.336C277.906 42.272 277.618 42.2 277.33 42.12C277.042 42.04 276.778 41.936 276.538 41.808C276.306 41.672 276.118 41.496 275.974 41.28C275.83 41.064 275.758 40.796 275.758 40.476C275.758 40.1 275.858 39.776 276.058 39.504C276.258 39.232 276.542 39.02 276.91 38.868C277.278 38.716 277.718 38.64 278.23 38.64C278.742 38.64 279.178 38.72 279.538 38.88C279.898 39.032 280.182 39.248 280.39 39.528C280.598 39.808 280.714 40.136 280.738 40.512L279.79 40.752C279.782 40.488 279.71 40.264 279.574 40.08C279.446 39.896 279.262 39.76 279.022 39.672C278.782 39.576 278.502 39.528 278.182 39.528C277.758 39.528 277.422 39.608 277.174 39.768C276.926 39.928 276.802 40.148 276.802 40.428C276.802 40.636 276.874 40.804 277.018 40.932C277.17 41.06 277.374 41.16 277.63 41.232C277.886 41.304 278.17 41.376 278.482 41.448C278.802 41.512 279.106 41.584 279.394 41.664C279.69 41.744 279.954 41.848 280.186 41.976C280.418 42.104 280.602 42.276 280.738 42.492C280.874 42.7 280.942 42.968 280.942 43.296C280.942 43.704 280.834 44.048 280.618 44.328C280.402 44.6 280.098 44.808 279.706 44.952C279.322 45.088 278.87 45.156 278.35 45.156Z" fill="#B3B3B3"/>
</svg>
